<svg id="Слой_1" data-name="Слой 1" xmlns="http://www.w3.org/2000/svg" viewBox="0 0 91.69 26.66"><defs><style>.cls-1{fill:#201600;}</style></defs><title>вход(з)</title><path class="cls-1" d="M205.05,139.2c1,0,2.49.09,4.34.28q4.61-.28,9-.28c1.62.62,2.43,1.52,2.43,2.71v1.35q0,1.56-3.52,5.16v.28q5.7,2.07,5.7,5.41v.82q0,6.78-6.79,6.78a63.37,63.37,0,0,0-8.95-.55l-.26-.54a18.67,18.67,0,0,0,.54-3.52V143.81c0-2.17-.91-3.25-2.71-3.25l-.28-.55v-.26C204.56,139.38,204.75,139.2,205.05,139.2Zm6.24,3v11.13a.24.24,0,0,1-.27.26l.27.54v3.26q0,2.16,1.89,2.16h1.37q5.14,0,5.14-3.79v-.27q0-2.35-6-4.89l-.28-.53c2.54-2.6,3.8-4.77,3.8-6.51v-1.36a2.37,2.37,0,0,0-2.17-1.35C212.55,141.17,211.29,141.63,211.29,142.18Z" transform="translate(-204.5 -138.78)"/><path class="cls-1" d="M225.2,139.16h4.52q1.68,0,3.18,3.45a30.35,30.35,0,0,0,3.18,4q4.77-5.72,4.77-7.17a7.35,7.35,0,0,0,1.07-.25l.53.25a1.92,1.92,0,0,1,.79-.25v.25l.54-.25h1.06c.35.05.52.22.52.53q-.8,2.31-8.49,8.21,7.4,11.41,9,11.42,1.86,0,1.86,1.32a6,6,0,0,1-1.86.53q-5.17,0-6.36-3.18-4.71-6.84-5-6.89a14.38,14.38,0,0,0-4.24,6.89v.79l2.11,1.33v.27c0,.26-.26.52-.79.79-.26,0-1.5-.08-3.71-.25-.13,0-.66.08-1.6.25-.71-.26-1.06-.52-1.06-.79q0-2.65,8-11.15V149q-5-8.49-7.69-8.49c-.54,0-.8-.18-.8-.53v-.26C224.73,139.33,224.9,139.16,225.2,139.16Z" transform="translate(-204.5 -138.78)"/><path class="cls-1" d="M262.4,138.78a8.49,8.49,0,0,1,8,5.06,11.6,11.6,0,0,1,.54,3.2v1.87q0,12.26-11.73,12.26h-1.09q-6.19,0-8.26-7.45a33.22,33.22,0,0,1-.53-5.34Q249.33,138.78,262.4,138.78Zm-.53,1.85h-.81q-8,0-8,7.47.78,11.47,5.87,11.48c0,.18.45.27,1.34.27,2.37,0,4.42-1.6,6.13-4.81a27.5,27.5,0,0,0,.81-6.4v-.8q0-7.47-4.81-7.47Z" transform="translate(-204.5 -138.78)"/><path class="cls-1" d="M280.86,139.16a24.54,24.54,0,0,1,3.83.27,16.93,16.93,0,0,1,3-.27l.28.54V140a2.11,2.11,0,0,1-.28,1.09q4.49,14.56,6.58,18.06l.55-.27c.48,0,.94.46,1.37,1.37a12.67,12.67,0,0,1-3.29,5.2h-.28l-.54-.27.27-1.37v-1.64c0-.27-.27-.54-.82-.82h-12.6c-1.77,0-3.5,1.27-5.19,3.83h-.27a.48.48,0,0,1-.55-.55q0-5.48,2.72-5.48l6.85-17.78a.49.49,0,0,1-.55-.55l-.54.27h-.55c-.27,0-.54-.27-.82-.82V140C280,139.71,280.31,139.44,280.86,139.16Zm3,4.1q-5.47,13.41-5.48,16.15H288.8c.26,0,.54-.28.82-.82q-4.94-14.46-5.48-15.33Z" transform="translate(-204.5 -138.78)"/></svg>