<svg id="Слой_1" data-name="Слой 1" xmlns="http://www.w3.org/2000/svg" viewBox="0 0 469.04 37.89"><defs><style>.cls-1{fill:#201600;}</style></defs><title>купить билеты</title><path class="cls-1" d="M20.31,115.05l5.23.42h3.94q.61,0,1.32,1.32a32.36,32.36,0,0,0-.9,6.55v14.4q0,10.48,2.64,10.48c2.33.19,3.49.63,3.49,1.32V150q0,.34-1.32,1.32l-3-.45H24.25l-.9-.43q.45-4.35.45-6.55v-13.1l.45-2.61A4.21,4.21,0,0,1,23.8,126v-4.81q0-3.08-4.36-3.94v-.87Zm28,0,.87,1.29q0,3.09-11.78,14a162.25,162.25,0,0,0,17,19.66.77.77,0,0,1-.87.87H52.2c-.3,0-.45-.14-.45-.43l-.87.43q-5.61,0-19.66-18.33v-.88Q41.71,122.17,41.71,119l-2.62-2.17v-.45c.09-.58.38-.87.88-.87h1.74Q43.9,115.47,48.26,115.05Z" transform="translate(-19.44 -114.57)"/><path class="cls-1" d="M81.66,115h2.22a.39.39,0,0,1,.45.44l.89-.44a.39.39,0,0,1,.45.44l3.12-.44h3.56c.6.1.89.39.89.89l-4.9,3.56q-12.18,22.67-13.83,26.76l-.45,2.69c2.58.79,3.92,1.53,4,2.21a.8.8,0,0,1-.9.9H72.3l-5.36.45-.45-.9q0-1.14,4.46-7.57a3.51,3.51,0,0,0,.45-1.8Q61,117.7,57.58,117.69q-1.32,0-1.32-.9v-.45q.12-.9.87-.9H65.6q2,2.78,9.81,20.08h.9Q83,124.21,83,119.9v-1.32l-2.66-2.24C80.32,115.91,80.77,115.46,81.66,115Z" transform="translate(-19.44 -114.57)"/><path class="cls-1" d="M96.71,115.22a29.35,29.35,0,0,1,5.75.45q11.58-.45,20.8-.45h7.52q.63,0,1.32,1.32a5,5,0,0,0-1.32,3.09v23q0,5.76,4,5.76.9.12.9.87v.9a.79.79,0,0,1-.9.89H125.9a.78.78,0,0,1-.87-.89V132c0-1.92-.15-4.88-.45-8.86H125l-.45-.88v-3.53l-2.22-.45h-6.62c-5.92,0-8.87.89-8.87,2.66v8.85q0,18.12,1.77,18.13c2.07.3,3.11.74,3.11,1.32v.9a.79.79,0,0,1-.9.89h-3.53l-2.64-.45a4.39,4.39,0,0,1-2.22.45H102c-.23,0-.67-.45-1.32-1.34l.43-3.09V128.05q0-10.19-2.2-10.19c-2.07,0-3.11-.29-3.11-.87v-.45Z" transform="translate(-19.44 -114.57)"/><path class="cls-1" d="M149.19,115.05q.12.87.87.87-.42,6.54-.42,9.59v17q3.45-2.83,15.71-23.14c2.19-2.62,4.09-3.93,5.68-3.93h1.74a79.25,79.25,0,0,0-.87,9.61v7.43q0,16.16,3.07,16.16c1.44.08,2.16.52,2.16,1.3q0,.66-1.74,1.32c-3-.3-5.31-.45-7-.45h-1.74l-.87-.43q.43-10.28.44-15.29v-4.81l-.44-4.35q-3.3,3.18-12.66,18.78-5.18,6.54-8.74,6.55-1.74-.66-1.74-1.32a29.73,29.73,0,0,0,.87-5.68V127.7a3.45,3.45,0,0,0-.43-1.74l.43-.88c0-4.66-.87-7-2.62-7q-2.19,0-2.19-1.29,0-.63,1.32-1.32h1.74Q144.06,115.47,149.19,115.05Z" transform="translate(-19.44 -114.57)"/><path class="cls-1" d="M211.33,114.57q1.8.65,1.8,1.32v3.56c0,3-1.49,4.46-4.46,4.46l-.45-.87.45-3.14q0-1.77-4.91-1.77H201.1a3,3,0,0,0-1.8,3.12v21.84q0,6,4.46,7.13c.3,0,.45.14.45.44l-.45.9-5.35-.45H193.5l-1.32-.89a31.89,31.89,0,0,0,.87-7.58v-4a.4.4,0,0,1,.45-.45l-.45-.89V120.8a3.27,3.27,0,0,0-1.32-2.67q-7.59,0-7.6,5.33l-1.77,1.35H181q-.9,0-.9-1.35,2.44-8.46,3.59-8.46h25Z" transform="translate(-19.44 -114.57)"/><path class="cls-1" d="M217.21,114.65l4.46.45H227l.9.44q-.45.55-.9,6.21a54.7,54.7,0,0,1,.45,6.22H227a3.27,3.27,0,0,1,.45,1.35.4.4,0,0,1-.45.45l.45,2.21v12.43a3.77,3.77,0,0,0,2.21,3.56h5.78c3.86,0,5.78-1.77,5.78-5.33V136q-.84-2.17-9.34-5.33a.78.78,0,0,1-.87.89.79.79,0,0,1-.9-.89c0-1.1,1-3,3.12-5.78q13.32,5.05,13.32,10.68v3.09q0,12.47-11.11,12.46H221.67l-.9-.45q.45-5.2.45-7.55v-5.33q0-6.64-.45-18.23,0-1.65-4.88-2.67V116Q215.89,115.61,217.21,114.65Z" transform="translate(-19.44 -114.57)"/><path class="cls-1" d="M289.17,114.8l.9,1.32q-2.1,8-3.57,8-.51,0-1.76-5.33a40.07,40.07,0,0,0-6.23-.87c-3.26,0-4.88,1-4.88,3.09a30.61,30.61,0,0,0-.43,5.78v7.1q0,14.19,3.54,14.19h.45q10.67,0,10.66-5.75a4.65,4.65,0,0,0,.42-2.22v-.45q0-3.56-11.53-6.67v-.42c1.58-3.26,2.76-4.89,3.56-4.89q11.49,6.06,13.3,11.54-1.34,12-9.76,12-14.2-.45-16.42-.45c0-.3-.14-.45-.44-.45.3-3.47.44-6,.44-7.55V121c0-2-1.62-3.29-4.88-4v-.89c.1-.58.4-.88.9-.88h5.31a22.6,22.6,0,0,1,4,.45,3.48,3.48,0,0,1,1.77-.45.4.4,0,0,1,.45.45A95.6,95.6,0,0,1,289.17,114.8Z" transform="translate(-19.44 -114.57)"/><path class="cls-1" d="M306.9,115.05c.09.58.38.87.88.87q-.43,6.54-.43,9.59v17q3.47-2.83,15.72-23.14,3.29-3.93,5.68-3.93h1.74a79.25,79.25,0,0,0-.87,9.61v7.43q0,16.16,3.06,16.16c1.45.08,2.17.52,2.17,1.3q0,.66-1.74,1.32-4.47-.45-7-.45h-1.75l-.87-.43q.45-10.28.45-15.29v-4.81l-.45-4.35q-3.28,3.18-12.65,18.78-5.18,6.54-8.74,6.55c-1.17-.44-1.75-.88-1.75-1.32a29.73,29.73,0,0,0,.87-5.68V127.7a3.56,3.56,0,0,0-.42-1.74l.42-.88c0-4.66-.87-7-2.61-7q-2.19,0-2.19-1.29,0-.63,1.32-1.32h1.74Q301.77,115.47,306.9,115.05Z" transform="translate(-19.44 -114.57)"/><path class="cls-1" d="M346.83,115h9.37q1.47,1.73,12.48,28.94c1.22,3.28,3.45,4.91,6.67,4.91v1.35a.79.79,0,0,1-.89.89h-9.35q-1.64-1.37-5.35-12.48-7.53-17.43-8.47-18.28-8,14.4-8,24.06v2.24q0,1.23,4.46,2.22v.9c0,.89-.59,1.34-1.77,1.34a35.12,35.12,0,0,1-4.91-.45,12.79,12.79,0,0,1-3.11.45,3.19,3.19,0,0,1-.9-1.79q0-3.92,11.58-30.74-4.46-1.22-4.45-2.24C344.47,115.41,345.35,115,346.83,115Z" transform="translate(-19.44 -114.57)"/><path class="cls-1" d="M380,114.6l5.38.45h7.15q4.49,0,13.45-.45l.45.89q0,2.13-4.93,8.5-1.23,0-1.8-5.81l-2.24-.44h-3.59q-4.49.54-4.48,1.79v1.79q0,2.9-.42,8.94a16.57,16.57,0,0,1,4-.89h6.72c1.8.2,2.69.64,2.69,1.34-.7,1.8-1.74,2.69-3.14,2.69-.36,0-1.86-.15-4.48-.45q-5.39,0-5.38,4.94v4.48q0,5.38,3.14,5.38a13.08,13.08,0,0,0,3.14.45q5.65,0,9-5.83a3.27,3.27,0,0,1,1.35-.45l.45.9q0,8.52-2.69,8.52-5.76,0-12.56-.45a75.7,75.7,0,0,1-8,.45.4.4,0,0,0-.45-.45c.3-4.49.45-7.77.45-9.87V120c0-1.75-1.35-2.79-4-3.14l-.45-.9C378.61,115.71,379.06,115.26,380,114.6Z" transform="translate(-19.44 -114.57)"/><path class="cls-1" d="M440.16,114.57c1.2.43,1.79.87,1.79,1.32v3.56c0,3-1.48,4.46-4.45,4.46l-.45-.87.45-3.14q0-1.77-4.91-1.77h-2.67a3,3,0,0,0-1.79,3.12v21.84q0,6,4.46,7.13c.3,0,.45.14.45.44l-.45.9-5.36-.45h-4.9l-1.32-.89a31.89,31.89,0,0,0,.87-7.58v-4a.4.4,0,0,1,.45-.45l-.45-.89V120.8a3.27,3.27,0,0,0-1.32-2.67q-7.6,0-7.6,5.33l-1.77,1.35h-1.34q-.9,0-.9-1.35,2.44-8.46,3.59-8.46h25Z" transform="translate(-19.44 -114.57)"/><path class="cls-1" d="M447.21,115l2.19.45h1.3l5.2-.45.87,1.32v8.25a.37.37,0,0,1-.42.42l.42.87v7.4a55.81,55.81,0,0,1-.42,6.08c.28.29.42,1.46.42,3.48h-.42q0,5.21,3.46,5.21,10.86,0,10.86-6.08,0-8.26-4.78-8.27-.72-1-6.08-2.59a3.23,3.23,0,0,1-1.29.42l-.45-.87q2.82-5.21,4.36-5.2,13.47,4.53,13.47,11.28v2.62q0,11.73-13.47,11.73H462q-1.12,0-11.73-.43c0-.3-.14-.44-.42-.44q.87-10.35.87-14.33a21.16,21.16,0,0,0-.45-3.48,55.7,55.7,0,0,0,.45-7.4c0-4.92-1-7.37-3-7.37-.87,0-1.3-.29-1.3-.88v-.42Zm27.37,0q5.24.45,5.23.87l.85-.42h2.62l.87.42c-.28,3.41-.42,5.87-.42,7.4v10.41l.42,3h-.42l.42.87q-.42,5.43-.42,6.08c0,3.05,1.58,4.8,4.75,5.23v.87c0,.42-.43.85-1.29,1.3q-5.65-.43-9.12-.43c0-.3-.15-.44-.45-.44q.45-5.65.45-9.12,0-22.59-1.74-22.59c-2-.7-3-1.28-3-1.75Z" transform="translate(-19.44 -114.57)"/></svg>