<svg id="Слой_1" data-name="Слой 1" xmlns="http://www.w3.org/2000/svg" viewBox="0 0 257.65 27.83"><defs><style>.cls-1{fill:#201600;}</style></defs><title>наши актёры(з)</title><path class="cls-1" d="M126.55,128a22.25,22.25,0,0,1,2.93.26,24.73,24.73,0,0,1,3.2-.26c.06.36.24.54.53.54a6,6,0,0,0-.79,2.66c.17,2.4.26,4.18.26,5.34H133a21.15,21.15,0,0,1,2.94-.27h7.47v-1.6q0-4.81-1.61-4.81c-1.07-.17-1.6-.44-1.6-.79v-.28c0-.25.27-.51.81-.79h5.87l.53.26c-.18,2.09-.27,3.6-.27,4.54v4a22.52,22.52,0,0,1-.26,2.94.24.24,0,0,0,.26.27,14,14,0,0,0-.26,2.13q0,5.59,1.32,5.6c1.25.24,1.87.6,1.87,1.06v.28c0,.26-.35.53-1.06.79-.16,0-.87-.09-2.13-.26a34.23,34.23,0,0,1-3.47.26.24.24,0,0,0-.27-.26q.27-5.34.27-8V139a.47.47,0,0,0-.53-.54h-2.68a14.86,14.86,0,0,1-2.66-.26l-4.81.53V144q0,5.79-4.54,6.67h-.79v-.26a25,25,0,0,0,1.6-5.62.24.24,0,0,0-.27-.26l.27-1.34v-2.66a2,2,0,0,0-.27-1.06,2.16,2.16,0,0,0,.27-1.08,7.76,7.76,0,0,1-.27-1.07H129l-.27-.53v-1.6A.24.24,0,0,1,129,135l-.27-.55V132c0-1.79-1-2.68-2.94-2.68l-.26-.54C125.48,128.36,125.84,128.09,126.55,128Z" transform="translate(-125.48 -122.86)"/><path class="cls-1" d="M157.21,128c1.8.18,3.16.27,4.06.27h.55l2.69-.27q.77.75,1.63,5.95,3.6,11.06,5.41,14.09c1.57.49,2.38.94,2.44,1.35v.26c0,.37-.18.55-.53.55q-4.76-.27-6-.27-2.25-7.29-3-7.58H164c-5.24,0-7.85.54-7.85,1.63a9.54,9.54,0,0,0-.55,2.43v.27c0,1.15,1.08,2,3.25,2.44v.53a.48.48,0,0,1-.54.55h-5.42q-.68,0-.81-1.08,0-1.8,7.31-18.14v-.55a7.5,7.5,0,0,0-3-.8v-.55Zm4.06,3.51q-3.26,7.16-3.26,8.4v.28c.55,0,.82.08.82.26.19,0,.28-.09.28-.26l1.88.26h.28l2.71-.26v-.28a85.65,85.65,0,0,0-2.44-8.4Z" transform="translate(-125.48 -122.86)"/><path class="cls-1" d="M208.62,127.59l.27.55v14.19q0,6.28,1.37,6.29c1.09,0,1.63.26,1.63.8,0,.15-.27.43-.82.82l-2.72-.27H189.51c-1,0-2.5.09-4.37.27a2.63,2.63,0,0,0-1.35-.27,2.06,2.06,0,0,1-.82.27l-.55-.27-.55.27-.55-.27a14.05,14.05,0,0,1-2.45.27.48.48,0,0,0-.54-.54l.27-2.73V133.32c0-2.72-.73-4.09-2.19-4.09a.48.48,0,0,1-.55-.55v-.27c.06-.37.24-.55.55-.55h5.73l.55.28-.27,1.91V144.8c0,2.36.46,3.54,1.37,3.54,1.6.18,2.6.28,3,.28a1.87,1.87,0,0,1,.82-.28c.18,0,.27.09.27.28,2.55,0,3.82-.64,3.82-1.92a36.6,36.6,0,0,0,.27-4.64,2.06,2.06,0,0,1-.27-.82H192l-.27-.55v-1.08a.25.25,0,0,1,.27-.28l-.27-.54v-1.37c0-.19.09-.28.27-.28l-.27-.54v-6c0-.23-.82-.78-2.46-1.64v-.55c.06-.37.24-.55.54-.55h5.47l.54.28c-.18,2.14-.27,3.68-.27,4.64q0,4.65.27,15.29l.55.27h.55q7.91,0,7.91-1.09a8.88,8.88,0,0,0,.28-2.19V134.69c0-3.64-.83-5.46-2.47-5.46l-.27-.55c0-.26.27-.53.82-.82H204C204.93,127.86,206.48,127.77,208.62,127.59Z" transform="translate(-125.48 -122.86)"/><path class="cls-1" d="M220.55,128c0,.36.23.54.53.54-.17,2.66-.26,4.62-.26,5.85v10.41q2.12-1.73,9.6-14.13c1.34-1.61,2.5-2.41,3.47-2.41H235a47.34,47.34,0,0,0-.53,5.88v4.53c0,6.58.62,9.88,1.87,9.88.88.05,1.32.31,1.32.79,0,.27-.35.54-1.06.8-1.82-.18-3.24-.27-4.28-.27h-1.06l-.54-.26q.28-6.28.28-9.34v-2.94l-.28-2.66q-2,1.95-7.73,11.47-3.16,4-5.34,4c-.71-.26-1.06-.53-1.06-.8a18.57,18.57,0,0,0,.53-3.47V135.74a2.19,2.19,0,0,0-.26-1.06l.26-.53c0-2.85-.53-4.28-1.6-4.28-.89,0-1.34-.26-1.34-.79q0-.37.81-.81H216C217,128.27,218.46,128.19,220.55,128Z" transform="translate(-125.48 -122.86)"/><path class="cls-1" d="M252.46,128c1.8.18,3.16.27,4.06.27h.55l2.69-.27q.76.75,1.63,5.95,3.6,11.06,5.42,14.09,2.34.74,2.43,1.35v.26c0,.37-.18.55-.53.55q-4.75-.27-6-.27-2.25-7.29-3-7.58h-.53c-5.24,0-7.85.54-7.85,1.63a9.54,9.54,0,0,0-.55,2.43v.27c0,1.15,1.09,2,3.26,2.44v.53a.49.49,0,0,1-.55.55h-5.42c-.45,0-.71-.36-.81-1.08q0-1.8,7.31-18.14v-.55a7.5,7.5,0,0,0-3-.8v-.55Zm4.06,3.51q-3.25,7.16-3.26,8.4v.28c.55,0,.83.08.83.26a.24.24,0,0,0,.27-.26l1.89.26h.27l2.71-.26v-.28a85.65,85.65,0,0,0-2.44-8.4Z" transform="translate(-125.48 -122.86)"/><path class="cls-1" d="M271.9,128l3.2.26h2.4q.39,0,.81.81a19.53,19.53,0,0,0-.55,4v8.8q0,6.41,1.61,6.4,2.13.16,2.13.81v.26c0,.14-.26.41-.8.8l-1.86-.27h-4.53l-.55-.26c.18-1.77.27-3.11.27-4v-8l.28-1.59a2.52,2.52,0,0,1-.28-1.34v-2.94c0-1.25-.88-2.05-2.66-2.4v-.54ZM289,128l.53.79q0,1.89-7.2,8.54a100.23,100.23,0,0,0,10.39,12,.47.47,0,0,1-.53.53h-.79a.24.24,0,0,1-.27-.26l-.54.26q-3.42,0-12-11.2v-.53q6.4-5.79,6.4-7.75l-1.59-1.32v-.28c.05-.35.22-.53.53-.53H285C285.87,128.27,287.2,128.19,289,128Z" transform="translate(-125.48 -122.86)"/><path class="cls-1" d="M313.31,127.72c.73.27,1.09.54,1.09.81v2.18a2.41,2.41,0,0,1-2.72,2.72l-.28-.53.28-1.92q0-1.08-3-1.08h-1.63a1.82,1.82,0,0,0-1.09,1.9v13.35c0,2.44.9,3.89,2.72,4.35a.24.24,0,0,1,.27.27l-.27.55-3.27-.27h-3l-.81-.55a19.14,19.14,0,0,0,.54-4.63v-2.45a.24.24,0,0,1,.27-.27l-.27-.55V131.53a2,2,0,0,0-.81-1.63q-4.63,0-4.64,3.26l-1.08.82h-.82c-.37,0-.55-.28-.55-.82q1.49-5.17,2.19-5.18h15.25Z" transform="translate(-125.48 -122.86)"/><path class="cls-1" d="M317.46,127.74l3.29.27h4.36q2.75,0,8.22-.27l.27.55q0,1.29-3,5.19c-.5,0-.86-1.19-1.09-3.55l-1.37-.27h-2.2c-1.82.22-2.73.59-2.73,1.09v1.1c0,1.17-.09,3-.26,5.46a10.21,10.21,0,0,1,2.45-.55h4.11c1.09.12,1.64.4,1.64.82q-.64,1.65-1.92,1.65c-.22,0-1.14-.09-2.74-.28q-3.28,0-3.28,3v2.74c0,2.19.63,3.28,1.91,3.28a8.23,8.23,0,0,0,1.92.28q3.45,0,5.48-3.56a1.91,1.91,0,0,1,.82-.28l.27.55c0,3.47-.54,5.2-1.64,5.2q-3.51,0-7.67-.27a47,47,0,0,1-4.91.27c0-.18-.09-.27-.28-.27q.28-4.11.28-6V131c0-1.07-.83-1.71-2.47-1.92l-.27-.55C316.64,128.42,316.91,128.15,317.46,127.74Zm4.05-4.88h2.36q.51.08.51.51v1.31a3.31,3.31,0,0,1-1.05,2.1,4.88,4.88,0,0,1-2.87-1.31Q320.78,122.86,321.51,122.86Zm6.43,0h2.36c.35,0,.52.22.52.51v1.31a3.31,3.31,0,0,1-1.05,2.1,4.93,4.93,0,0,1-2.88-1.31Q327.22,122.86,327.94,122.86Z" transform="translate(-125.48 -122.86)"/><path class="cls-1" d="M346.7,127.92H347q7.83,0,7.82,4.86v2.14q0,5.22-8.88,6.19h-.28c-1.25-.17-1.88-.44-1.88-.8.35-.36,1.52-.63,3.5-.81a4.89,4.89,0,0,0,3.5-5.11q0-4.57-3.78-4.58h-2.14q-3,0-3,3.77v.26q0,14.29,1.35,14.29c1.43.32,2.15.68,2.15,1.06v.28l-.27.55c-1.79-.19-3.13-.28-4-.28H340l-1.34.28a.48.48,0,0,0-.54-.55l.27-2.7V133.58q-.15-4.31-3-4.3l-.26-.55.81-.53c2.24.17,3.5.25,3.76.25A63.52,63.52,0,0,1,346.7,127.92Z" transform="translate(-125.48 -122.86)"/><path class="cls-1" d="M357.92,128l1.34.27h.79l3.18-.27.53.8v5a.23.23,0,0,1-.26.26l.26.53v4.52a34.4,34.4,0,0,1-.26,3.71,4.63,4.63,0,0,1,.26,2.13h-.26c0,2.12.71,3.18,2.12,3.18,4.42,0,6.63-1.23,6.63-3.71q0-5.06-2.92-5.05c-.29-.42-1.53-.94-3.71-1.58a2.07,2.07,0,0,1-.79.26l-.28-.54c1.15-2.12,2-3.18,2.66-3.18q8.24,2.78,8.24,6.9v1.59q0,7.17-8.24,7.17h-.27q-.68,0-7.17-.26c0-.18-.08-.27-.25-.27q.53-6.32.53-8.75a12.33,12.33,0,0,0-.28-2.13,32.9,32.9,0,0,0,.28-4.52q0-4.5-1.86-4.5c-.52,0-.79-.18-.79-.54v-.26Zm16.72,0c2.13.18,3.2.36,3.2.53l.51-.26H380l.53.26c-.17,2.08-.26,3.59-.26,4.52v6.36l.26,1.86h-.26l.26.53c-.17,2.21-.26,3.45-.26,3.71a3,3,0,0,0,2.91,3.2v.53c0,.25-.26.52-.79.79-2.3-.17-4.16-.26-5.57-.26a.24.24,0,0,0-.27-.27c.18-2.3.27-4.16.27-5.57q0-13.8-1.06-13.8c-1.24-.43-1.86-.78-1.86-1.07Z" transform="translate(-125.48 -122.86)"/></svg>