<svg id="Слой_1" data-name="Слой 1" xmlns="http://www.w3.org/2000/svg" viewBox="0 0 160 23.05"><defs><style>.cls-1{fill:#201600;}</style></defs><title>новости(з)</title><path class="cls-1" d="M148.86,133.59a22.39,22.39,0,0,1,2.93.26,24.6,24.6,0,0,1,3.2-.26c.06.35.24.53.53.53a6.07,6.07,0,0,0-.79,2.67c.17,2.4.26,4.18.26,5.34h.27a20,20,0,0,1,2.94-.28h7.47v-1.6q0-4.8-1.61-4.8c-1.07-.18-1.6-.44-1.6-.8v-.27c0-.25.27-.52.8-.79h5.88l.53.26q-.27,3.14-.27,4.53v4a22.52,22.52,0,0,1-.26,2.94c0,.18.08.28.26.28a12.82,12.82,0,0,0-.26,2.13q0,5.6,1.32,5.6c1.25.24,1.87.59,1.87,1.06v.27c0,.27-.35.53-1.06.8-.16,0-.87-.09-2.13-.26a34.23,34.23,0,0,1-3.47.26c0-.18-.09-.26-.27-.26q.27-5.34.27-8v-2.66c0-.37-.18-.55-.53-.55h-2.68a14,14,0,0,1-2.66-.26l-4.81.54v5.34q0,5.78-4.54,6.66h-.79V156a25.28,25.28,0,0,0,1.6-5.61.24.24,0,0,0-.27-.26l.27-1.34v-2.66a2.07,2.07,0,0,0-.27-1.07,2.11,2.11,0,0,0,.27-1.08,7.82,7.82,0,0,1-.27-1.06h.27l-.27-.54v-1.59c0-.18.09-.26.27-.26L151,140v-2.39c0-1.78-1-2.68-2.94-2.68l-.26-.53C147.79,133.93,148.15,133.67,148.86,133.59Z" transform="translate(-147.79 -133.21)"/><path class="cls-1" d="M187.49,133.21a8.49,8.49,0,0,1,8,5.07,11.49,11.49,0,0,1,.53,3.19v1.87q0,12.27-11.73,12.27h-1.08q-6.21,0-8.26-7.46a33.22,33.22,0,0,1-.53-5.34Q174.42,133.21,187.49,133.21Zm-.53,1.86h-.81q-8,0-8,7.47Q178.93,154,184,154c0,.18.45.27,1.34.27,2.37,0,4.42-1.6,6.13-4.8a27.58,27.58,0,0,0,.81-6.41v-.79q0-7.47-4.81-7.47Z" transform="translate(-147.79 -133.21)"/><path class="cls-1" d="M198.53,133.64c1.05,0,2.49.09,4.34.27,3.07-.18,6.06-.27,8.95-.27,1.62.61,2.43,1.52,2.43,2.7v1.36q0,1.55-3.51,5.16v.27q5.69,2.07,5.69,5.42v.82q0,6.76-6.79,6.77a63.22,63.22,0,0,0-8.94-.55l-.26-.53a19.37,19.37,0,0,0,.53-3.53V138.25c0-2.17-.9-3.26-2.71-3.26l-.27-.55v-.26Q198.08,133.64,198.53,133.64Zm6.24,3v11.12a.24.24,0,0,1-.27.26l.27.55v3.25q0,2.16,1.89,2.16H208q5.15,0,5.14-3.79v-.27q0-2.35-6-4.88l-.28-.54q3.81-3.89,3.81-6.51v-1.35a2.38,2.38,0,0,0-2.18-1.36C206,135.61,204.77,136.06,204.77,136.62Z" transform="translate(-147.79 -133.21)"/><path class="cls-1" d="M231.42,133.21a8.49,8.49,0,0,1,8,5.07,11.87,11.87,0,0,1,.53,3.19v1.87q0,12.27-11.73,12.27h-1.08q-6.21,0-8.26-7.46a32.11,32.11,0,0,1-.53-5.34Q218.35,133.21,231.42,133.21Zm-.54,1.86h-.8q-8,0-8,7.47Q222.87,154,228,154c0,.18.44.27,1.34.27q3.56,0,6.13-4.8a27.54,27.54,0,0,0,.8-6.41v-.79q0-7.47-4.8-7.47Z" transform="translate(-147.79 -133.21)"/><path class="cls-1" d="M251.91,133.38h3.58q5.2.21,5.2,2.19c-1.16,2.74-1.9,4.11-2.19,4.11H258l-.54-.28.27-1.37v-1.37q-.62-1.64-4.93-1.64-6.58,0-6.59,4.66v4.65q0,9.06,5.2,9.06h.55a55.87,55.87,0,0,0,6.86-.83l.28.55c-1.65,1.83-4.13,2.74-7.41,2.74q-9.58,0-9.59-12.07v-.27q0-7.77,4.66-9A17.31,17.31,0,0,1,251.91,133.38Z" transform="translate(-147.79 -133.21)"/><path class="cls-1" d="M281.16,133.3c.73.26,1.09.53,1.09.81v2.17a2.41,2.41,0,0,1-2.72,2.73l-.27-.54.27-1.91q0-1.08-3-1.08H274.9a1.81,1.81,0,0,0-1.09,1.9v13.34q0,3.67,2.72,4.36a.25.25,0,0,1,.28.27l-.28.55-3.27-.28h-3l-.8-.54a19.78,19.78,0,0,0,.53-4.63V148a.24.24,0,0,1,.27-.27l-.27-.55V137.1a2,2,0,0,0-.81-1.62q-4.64,0-4.64,3.25l-1.08.82h-.82c-.37,0-.55-.27-.55-.82q1.5-5.17,2.19-5.17h15.25Z" transform="translate(-147.79 -133.21)"/><path class="cls-1" d="M290.71,133.59c.05.35.23.53.54.53-.18,2.67-.26,4.62-.26,5.86v10.41q2.11-1.74,9.6-14.14c1.34-1.6,2.49-2.4,3.47-2.4h1.06a49.28,49.28,0,0,0-.53,5.87v4.54q0,9.87,1.87,9.87c.88.05,1.33.32,1.33.79,0,.28-.36.55-1.07.81-1.82-.18-3.24-.27-4.28-.27h-1.06l-.53-.26q.27-6.28.27-9.35v-2.93l-.27-2.67q-2,2-7.73,11.48-3.17,4-5.34,4c-.71-.26-1.07-.53-1.07-.81a17.64,17.64,0,0,0,.53-3.47V141.32a2.22,2.22,0,0,0-.25-1.07l.25-.53c0-2.85-.53-4.27-1.59-4.27-.9,0-1.34-.27-1.34-.8,0-.25.27-.52.8-.8h1.07C287.11,133.85,288.62,133.76,290.71,133.59Z" transform="translate(-147.79 -133.21)"/></svg>