<svg id="Слой_1" data-name="Слой 1" xmlns="http://www.w3.org/2000/svg" viewBox="0 0 186.06 42.91"><defs><style>.cls-1{fill:#201600;}</style></defs><title>о нас</title><path class="cls-1" d="M191.24,125q10,0,14.89,9.44a21.82,21.82,0,0,1,1,5.94v3.49q0,22.82-21.83,22.82h-2q-11.57,0-15.38-13.87a61,61,0,0,1-1-10Q166.91,125,191.24,125Zm-1,3.46h-1.5q-14.9,0-14.89,13.91,1.47,21.35,10.93,21.35,0,.51,2.49.51,6.63,0,11.41-9a51.45,51.45,0,0,0,1.5-11.92v-1.48q0-13.9-8.94-13.9Z" transform="translate(-166.91 -125.01)"/><path class="cls-1" d="M226.58,125.72a40.84,40.84,0,0,1,5.46.48,45.28,45.28,0,0,1,6-.48q.18,1,1,1a11.38,11.38,0,0,0-1.47,5c.32,4.47.48,7.79.48,9.94h.51a38.74,38.74,0,0,1,5.47-.51h13.9v-3q0-9-3-8.95-3-.48-3-1.47v-.51c0-.48.5-1,1.5-1.48h10.93l1,.48c-.34,3.89-.51,6.71-.51,8.44v7.45a41.1,41.1,0,0,1-.48,5.47q0,.51.48.51a25.63,25.63,0,0,0-.48,4q0,10.42,2.46,10.42c2.33.46,3.49,1.12,3.49,2V165c0,.49-.66,1-2,1.47q-.45,0-4-.48a62.28,62.28,0,0,1-6.46.48q0-.48-.51-.48.51-9.94.51-14.9v-5a.89.89,0,0,0-1-1h-5a26.6,26.6,0,0,1-5-.49l-8.95,1v9.94q0,10.75-8.44,12.4h-1.47v-.48a47.27,47.27,0,0,0,3-10.45q0-.48-.51-.48l.51-2.5v-4.95a3.74,3.74,0,0,0-.51-2,4,4,0,0,0,.51-2,14.41,14.41,0,0,1-.51-2h.51l-.51-1v-3q0-.48.51-.48l-.51-1v-4.45q0-5-5.46-5l-.48-1C224.6,126.36,225.26,125.87,226.58,125.72Z" transform="translate(-166.91 -125.01)"/><path class="cls-1" d="M283.64,125.75c3.36.34,5.89.51,7.57.51h1l5-.51q1.41,1.4,3,11.07,6.71,20.6,10.08,26.23c2.91.91,4.42,1.74,4.53,2.52v.48a.89.89,0,0,1-1,1q-8.83-.51-11.1-.51-4.19-13.56-5.55-14.1h-1q-14.62,0-14.62,3a18.29,18.29,0,0,0-1,4.53v.51q0,3.19,6.06,4.53v1a.9.9,0,0,1-1,1H275.57q-1.24,0-1.5-2,0-3.34,13.6-33.76v-1q-1.11-.87-5.53-1.5v-1Zm7.57,6.54q-6.06,13.32-6.06,15.64v.51c1,0,1.52.16,1.52.48q.51,0,.51-.48l3.52.48h.51l5-.48v-.51q0-1.23-4.53-15.64Z" transform="translate(-166.91 -125.01)"/><path class="cls-1" d="M336.63,125.33h6.66q9.68.39,9.68,4.07-3.25,7.65-4.08,7.65h-1l-1-.51.51-2.55v-2.55q-1.14-3.06-9.18-3.06-12.27,0-12.26,8.67v8.67q0,16.85,9.68,16.85h1A104,104,0,0,0,349.4,161l.51,1q-4.61,5.1-13.79,5.1-17.83,0-17.84-22.46v-.51q0-14.48,8.67-16.82A32.27,32.27,0,0,1,336.63,125.33Z" transform="translate(-166.91 -125.01)"/></svg>