<svg id="Слой_1" data-name="Слой 1" xmlns="http://www.w3.org/2000/svg" viewBox="0 0 164.41 22.52"><defs><style>.cls-1{fill:#201600;}</style></defs><title>профиль(з)</title><path class="cls-1" d="M162.23,128.12a18.41,18.41,0,0,1,3.52.27q7.06-.27,12.7-.27h4.6c.25,0,.52.27.8.81a3,3,0,0,0-.8,1.88v14.06c0,2.34.8,3.52,2.41,3.52.37.05.55.22.55.53v.55a.48.48,0,0,1-.55.54h-5.4a.47.47,0,0,1-.53-.54V138.39c0-1.18-.09-3-.27-5.42h.27l-.27-.53v-2.16L177.9,130h-4.05q-5.41,0-5.41,1.62V137q0,11.07,1.08,11.07c1.27.19,1.9.45,1.9.81v.55a.48.48,0,0,1-.55.54h-2.16l-1.61-.27a2.73,2.73,0,0,1-1.35.27h-.28c-.14,0-.41-.27-.8-.82l.25-1.88V136c0-4.15-.44-6.23-1.34-6.23-1.26,0-1.9-.18-1.9-.53v-.27Z" transform="translate(-161.68 -127.63)"/><path class="cls-1" d="M199.16,127.92h.26q7.82,0,7.82,4.86v2.14q0,5.22-8.89,6.19h-.27c-1.26-.17-1.89-.44-1.89-.8.36-.36,1.52-.63,3.5-.81a4.89,4.89,0,0,0,3.5-5.11c0-3.06-1.26-4.58-3.77-4.58h-2.15c-2,0-3,1.26-3,3.77v.26q0,14.29,1.35,14.29c1.43.32,2.14.68,2.14,1.06v.28l-.27.54c-1.78-.18-3.13-.27-4-.27h-1.08l-1.34.27a.48.48,0,0,0-.55-.54l.28-2.7V133.58q-.17-4.31-3-4.3l-.26-.55.81-.53c2.24.17,3.49.25,3.75.25A63.67,63.67,0,0,1,199.16,127.92Z" transform="translate(-161.68 -127.63)"/><path class="cls-1" d="M222.21,127.63a8.49,8.49,0,0,1,8,5.07,11.6,11.6,0,0,1,.54,3.19v1.88Q230.75,150,219,150h-1.08q-6.21,0-8.27-7.46a33.22,33.22,0,0,1-.53-5.34Q209.14,127.63,222.21,127.63Zm-.53,1.86h-.81q-8,0-8,7.47.8,11.47,5.87,11.47c0,.18.45.28,1.34.28,2.37,0,4.42-1.61,6.13-4.81a27.51,27.51,0,0,0,.81-6.41v-.79q0-7.47-4.81-7.47Z" transform="translate(-161.68 -127.63)"/><path class="cls-1" d="M240.27,127.8l1.33.26h5.05c.34,0,.52.27.52.8a4.57,4.57,0,0,0-.8,2.12c.07.35.24.53.54.53h2.92c3.88,0,5.83,1.68,5.83,5v4.52c0,3.18-2.12,4.78-6.36,4.78h-2.93v1.85c.07.41.86.85,2.39,1.33v.53a.47.47,0,0,1-.53.53H242.4l-.53-.27.26-2.65V146.1h-4.51a2.1,2.1,0,0,0-1.06.28q-3.3,0-4.25-9.56c0-3.54,2.22-5.31,6.64-5.31h2.92l.53-.26c0-.9-.88-1.61-2.66-2.13l-.26-.53C239.48,128.46,239.75,128.2,240.27,127.8Zm-3.71,8.75v.53q0,7.42,2.65,7.43c2.13-.13,3.19-.4,3.19-.79a2.62,2.62,0,0,0-.27-1.33c.18-1.8.27-3.22.27-4.24v-5h-.27Q236.57,133.11,236.56,136.55Zm9.81-3.44v11.14h.28q5.57,0,5.57-4.25,0-6.63-3.18-6.63A10.64,10.64,0,0,0,246.37,133.11Z" transform="translate(-161.68 -127.63)"/><path class="cls-1" d="M264.1,128c0,.36.23.53.53.53-.17,2.67-.25,4.63-.25,5.86v10.41q2.1-1.74,9.6-14.13c1.33-1.61,2.49-2.41,3.47-2.41h1.06a49.45,49.45,0,0,0-.53,5.87v4.54q0,9.87,1.87,9.87c.88,0,1.32.32,1.32.8,0,.27-.35.54-1.06.8-1.82-.18-3.24-.27-4.28-.27h-1.06l-.54-.26q.28-6.28.28-9.34v-2.94l-.28-2.66q-2,1.95-7.73,11.47-3.17,4-5.34,4c-.71-.26-1.06-.53-1.06-.8a18.57,18.57,0,0,0,.53-3.47V135.74a2.19,2.19,0,0,0-.26-1.06l.26-.54c0-2.85-.53-4.27-1.6-4.27-.89,0-1.33-.26-1.33-.79,0-.26.26-.52.8-.81h1.07C260.5,128.27,262,128.19,264.1,128Z" transform="translate(-161.68 -127.63)"/><path class="cls-1" d="M288.49,128h5.72q.9,1,7.63,17.68a4.09,4.09,0,0,0,4.07,3v.82a.48.48,0,0,1-.54.54h-5.71q-1-.82-3.27-7.62-4.59-10.65-5.18-11.17-4.89,8.81-4.89,14.7v1.37c0,.5.9,1,2.72,1.36v.54c0,.55-.36.82-1.08.82a21.89,21.89,0,0,1-3-.27,7.94,7.94,0,0,1-1.9.27,1.91,1.91,0,0,1-.55-1.09q0-2.38,7.08-18.78c-1.82-.49-2.73-.95-2.73-1.37C287.05,128.24,287.59,128,288.49,128Z" transform="translate(-161.68 -127.63)"/><path class="cls-1" d="M308.17,127.77l2.72.27h3.26l.54.28a13.93,13.93,0,0,0-.54,3.79,34,34,0,0,1,.27,3.8h-.27a2,2,0,0,1,.27.82.25.25,0,0,1-.27.28l.27,1.35V146a2.3,2.3,0,0,0,1.35,2.18h3.53c2.36,0,3.53-1.09,3.53-3.26v-4.08q-.51-1.32-5.7-3.25a.48.48,0,0,1-.53.55.49.49,0,0,1-.55-.55c0-.67.63-1.85,1.9-3.53q8.15,3.09,8.14,6.53v1.88q0,7.61-6.79,7.61h-8.41l-.55-.27c.18-2.12.28-3.66.28-4.61v-3.26c0-2.71-.1-6.42-.28-11.14,0-.67-1-1.21-3-1.63v-.54Q307.36,128.36,308.17,127.77Z" transform="translate(-161.68 -127.63)"/></svg>