<svg id="Слой_1" data-name="Слой 1" xmlns="http://www.w3.org/2000/svg" viewBox="0 0 206.27 27.6"><defs><style>.cls-1{fill:#201600;}</style></defs><title>режиссёры(з)</title><path class="cls-1" d="M150.17,127.92h.26q7.81,0,7.82,4.86v2.14q0,5.22-8.88,6.19h-.28c-1.26-.17-1.88-.44-1.88-.8.35-.36,1.52-.63,3.49-.81a4.88,4.88,0,0,0,3.5-5.11c0-3-1.25-4.58-3.77-4.58h-2.14q-3,0-3,3.77v.26q0,14.29,1.35,14.29c1.43.32,2.15.68,2.15,1.06v.28l-.28.55c-1.78-.19-3.13-.28-4-.28h-1.08l-1.34.28a.48.48,0,0,0-.55-.55l.28-2.7V133.58q-.15-4.31-3-4.3l-.26-.55.81-.53c2.24.17,3.49.25,3.76.25A63.52,63.52,0,0,1,150.17,127.92Z" transform="translate(-138.59 -122.85)"/><path class="cls-1" d="M161.23,127.74l3.29.27h4.37q2.73,0,8.21-.27l.28.55c0,.86-1,2.59-3,5.19-.5,0-.87-1.19-1.1-3.55l-1.37-.27h-2.19c-1.83.22-2.74.58-2.74,1.09v1.1c0,1.17-.09,3-.26,5.46a9.91,9.91,0,0,1,2.45-.55h4.11c1.1.12,1.64.4,1.64.82-.42,1.1-1.06,1.65-1.91,1.65-.23,0-1.14-.09-2.74-.28q-3.28,0-3.29,3v2.74c0,2.19.64,3.28,1.92,3.28a8.22,8.22,0,0,0,1.91.28c2.31,0,4.13-1.19,5.48-3.56a2,2,0,0,1,.82-.28l.28.55q0,5.21-1.65,5.2-3.51,0-7.66-.27a47.34,47.34,0,0,1-4.92.27.24.24,0,0,0-.27-.27q.27-4.11.27-6V131q0-1.6-2.46-1.92l-.28-.55C160.41,128.42,160.69,128.15,161.23,127.74Z" transform="translate(-138.59 -122.85)"/><path class="cls-1" d="M180,128h1.1a2.71,2.71,0,0,1,1.35.26l1.63-.26c1.08.11,1.63.38,1.63.8-.19,1-.28,1.5-.28,1.63q.18,2.08,5.42,7.85-5.7,6.92-6.51,9.77a9.59,9.59,0,0,1,3.25,1.61v.28l-.27.55q-4.06-.28-6-.28H180c-.25,0-.52-.27-.81-.8q.3-2,8.4-12.21-.25,0-5.69-6.77-2.43-.87-2.43-1.35v-.55C179.5,128.15,179.68,128,180,128Zm9.77,0a13.62,13.62,0,0,1,2.43.26,23.84,23.84,0,0,1,3.26-.26l.53.8a16.07,16.07,0,0,1-.53,2.44q.26,6.61.26,7.32-.25,5.76-.26,6.77a3.94,3.94,0,0,0,3.24,4.08v.25c0,.37-.27.55-.81.55a33.12,33.12,0,0,1-3.53-.27,13.76,13.76,0,0,1-2.43.27l-.53-.8a27.94,27.94,0,0,1,.53-4.34.24.24,0,0,0-.27-.27l.27-3.26V135q0-5.16-1.36-5.16c-.9,0-1.35-.26-1.35-.8v-.55C189.26,128.15,189.44,128,189.75,128Zm11.11,0h4.06c1.08.11,1.63.38,1.63.8v.55q0,2-6.77,8.13a94.37,94.37,0,0,0,9.75,11.65v.28c0,.25-.27.52-.82.8h-.54q-3.88,0-11.65-11.65,6.24-6.17,6.24-8.13v-.55q-2.73-.33-2.73-1.08C200,128.51,200.31,128.24,200.86,128Z" transform="translate(-138.59 -122.85)"/><path class="cls-1" d="M217.61,128c0,.36.23.54.53.54-.17,2.66-.26,4.62-.26,5.85v10.41q2.12-1.74,9.6-14.13c1.34-1.61,2.5-2.41,3.47-2.41H232a47.34,47.34,0,0,0-.53,5.88v4.53q0,9.87,1.87,9.87c.88.06,1.32.32,1.32.8,0,.27-.35.54-1.06.8-1.82-.18-3.24-.27-4.28-.27h-1.07l-.53-.26q.28-6.28.28-9.34v-2.94l-.28-2.66q-2,1.95-7.73,11.47-3.16,4-5.34,4c-.71-.26-1.06-.53-1.06-.8a18.57,18.57,0,0,0,.53-3.47V135.74a2.19,2.19,0,0,0-.26-1.06l.26-.53c0-2.86-.53-4.28-1.6-4.28-.89,0-1.34-.26-1.34-.79,0-.26.27-.52.81-.81h1.06C214,128.27,215.52,128.19,217.61,128Z" transform="translate(-138.59 -122.85)"/><path class="cls-1" d="M247,127.8h3.57q5.2.21,5.21,2.19-1.75,4.11-2.2,4.11h-.54l-.55-.27.27-1.37v-1.37c-.4-1.1-2.05-1.65-4.93-1.65-4.39,0-6.59,1.56-6.59,4.66v4.66q0,9,5.21,9.05H247a55.57,55.57,0,0,0,6.86-.82l.27.55q-2.47,2.73-7.41,2.73-9.58,0-9.58-12.06v-.28q0-7.77,4.65-9A17.43,17.43,0,0,1,247,127.8Z" transform="translate(-138.59 -122.85)"/><path class="cls-1" d="M267.75,127.8h3.57q5.21.21,5.2,2.19-1.74,4.11-2.19,4.11h-.54l-.55-.27.27-1.37v-1.37c-.4-1.1-2.05-1.65-4.93-1.65-4.39,0-6.59,1.56-6.59,4.66v4.66q0,9,5.21,9.05h.55a55.57,55.57,0,0,0,6.86-.82l.27.55q-2.47,2.73-7.41,2.73-9.59,0-9.59-12.06v-.28q0-7.77,4.66-9A17.43,17.43,0,0,1,267.75,127.8Z" transform="translate(-138.59 -122.85)"/><path class="cls-1" d="M279.19,127.74l3.28.27h4.37q2.75,0,8.22-.27l.27.55q0,1.29-3,5.19c-.5,0-.86-1.19-1.1-3.55l-1.37-.27h-2.19c-1.82.22-2.74.58-2.74,1.09v1.1c0,1.17-.08,3-.25,5.46a9.72,9.72,0,0,1,2.45-.55h4.1c1.1.12,1.65.4,1.65.82q-.64,1.65-1.92,1.65c-.22,0-1.14-.09-2.74-.28q-3.29,0-3.29,3v2.74c0,2.19.64,3.28,1.92,3.28a8.23,8.23,0,0,0,1.92.28q3.45,0,5.48-3.56a1.87,1.87,0,0,1,.82-.28l.27.55q0,5.21-1.64,5.2c-2.35,0-4.9-.09-7.67-.27a47.19,47.19,0,0,1-4.92.27.24.24,0,0,0-.27-.27q.27-4.11.27-6V131q0-1.6-2.46-1.92l-.27-.55C278.37,128.42,278.64,128.15,279.19,127.74Zm4-4.89h2.36c.35.06.52.23.52.52v1.31a3.31,3.31,0,0,1-1.05,2.1,4.93,4.93,0,0,1-2.88-1.31C282.4,123.73,282.75,122.85,283.23,122.85Zm6.44,0H292c.34.06.52.23.52.52v1.31a3.31,3.31,0,0,1-1.05,2.1,4.9,4.9,0,0,1-2.88-1.31C288.83,123.73,289.18,122.85,289.67,122.85Z" transform="translate(-138.59 -122.85)"/><path class="cls-1" d="M308.43,127.92h.26q7.81,0,7.82,4.86v2.14q0,5.22-8.88,6.19h-.28c-1.26-.17-1.89-.44-1.89-.8.36-.36,1.53-.63,3.5-.81a4.88,4.88,0,0,0,3.5-5.11c0-3-1.25-4.58-3.77-4.58h-2.14q-3,0-3,3.77v.26q0,14.29,1.35,14.29c1.43.32,2.15.68,2.15,1.06v.28l-.28.55c-1.78-.19-3.13-.28-4-.28h-1.08l-1.34.28a.48.48,0,0,0-.55-.55l.28-2.7V133.58q-.15-4.31-3-4.3l-.26-.55.81-.53c2.24.17,3.49.25,3.76.25A63.52,63.52,0,0,1,308.43,127.92Z" transform="translate(-138.59 -122.85)"/><path class="cls-1" d="M319.65,128l1.34.27h.79L325,128l.53.8v5a.23.23,0,0,1-.26.26l.26.53v4.52a34.4,34.4,0,0,1-.26,3.71,4.63,4.63,0,0,1,.26,2.13h-.26c0,2.12.71,3.18,2.12,3.18,4.42,0,6.63-1.23,6.63-3.71q0-5.06-2.92-5.05c-.3-.42-1.53-.94-3.71-1.58a2.05,2.05,0,0,1-.8.26l-.27-.54c1.15-2.12,2-3.18,2.66-3.18q8.24,2.78,8.24,6.9v1.59q0,7.17-8.24,7.17h-.27q-.69,0-7.17-.26c0-.18-.08-.27-.26-.27q.54-6.32.54-8.75a12.33,12.33,0,0,0-.28-2.13,32.9,32.9,0,0,0,.28-4.52c0-3-.62-4.51-1.86-4.51-.53,0-.79-.17-.79-.53v-.26Zm16.72,0c2.13.18,3.19.36,3.19.53l.52-.26h1.6l.53.26c-.17,2.08-.26,3.59-.26,4.52v6.36l.26,1.86H342l.26.53c-.17,2.21-.26,3.45-.26,3.71a3,3,0,0,0,2.91,3.2v.53c0,.25-.26.52-.79.79-2.3-.17-4.16-.26-5.57-.26,0-.18-.09-.27-.28-.27.19-2.3.28-4.16.28-5.57q0-13.8-1.07-13.8c-1.23-.43-1.85-.78-1.85-1.07Z" transform="translate(-138.59 -122.85)"/></svg>