<svg id="Слой_1" data-name="Слой 1" xmlns="http://www.w3.org/2000/svg" viewBox="0 0 195.17 23.14"><defs><style>.cls-1{fill:#201600;}</style></defs><title>репертуар(з)</title><path class="cls-1" d="M171.37,137.75h.25q7.83,0,7.83,4.85v2.15q0,5.22-8.89,6.19h-.27c-1.26-.17-1.89-.44-1.89-.8.35-.36,1.52-.63,3.5-.81a4.9,4.9,0,0,0,3.5-5.11c0-3.06-1.26-4.58-3.78-4.58h-2.14q-3,0-3,3.77v.26q0,14.28,1.36,14.29c1.43.32,2.14.68,2.14,1.06v.28l-.27.54c-1.79-.18-3.13-.27-4-.27h-1.08l-1.34.27a.48.48,0,0,0-.55-.54l.27-2.7V143.41q-.15-4.31-3-4.31l-.26-.54.8-.54c2.24.18,3.5.26,3.76.26A63.5,63.5,0,0,1,171.37,137.75Z" transform="translate(-159.79 -137.55)"/><path class="cls-1" d="M182.43,137.57l3.28.27h4.37q2.74,0,8.22-.27l.27.55q0,1.29-3,5.18c-.5,0-.86-1.18-1.1-3.54l-1.37-.28H190.9c-1.82.23-2.74.59-2.74,1.1v1.1c0,1.17-.08,3-.25,5.46a9.72,9.72,0,0,1,2.45-.55h4.1c1.1.12,1.65.4,1.65.82q-.65,1.65-1.92,1.65c-.22,0-1.14-.1-2.74-.28-2.19,0-3.29,1-3.29,3v2.74c0,2.19.64,3.29,1.92,3.29a8.16,8.16,0,0,0,1.92.27c2.3,0,4.13-1.18,5.48-3.56a2,2,0,0,1,.82-.27l.27.55q0,5.2-1.64,5.2-3.51,0-7.67-.27a47,47,0,0,1-4.91.27.25.25,0,0,0-.28-.27c.18-2.74.28-4.75.28-6V140.85c0-1.06-.83-1.7-2.47-1.91l-.27-.55C181.61,138.25,181.88,138,182.43,137.57Z" transform="translate(-159.79 -137.55)"/><path class="cls-1" d="M200.31,138a18.22,18.22,0,0,1,3.51.27q7.08-.27,12.71-.27h4.59c.26,0,.52.27.81.8a3,3,0,0,0-.81,1.89V154.7c0,2.34.81,3.52,2.42,3.52.37.05.55.22.55.53v.55a.48.48,0,0,1-.55.54h-5.4a.47.47,0,0,1-.53-.54V148.22c0-1.18-.09-3-.28-5.42h.28l-.28-.53v-2.16l-1.35-.28h-4c-3.61,0-5.42.55-5.42,1.63v5.4q0,11.08,1.08,11.08c1.27.18,1.91.45,1.91.81v.55a.48.48,0,0,1-.55.54h-2.16l-1.61-.27a2.75,2.75,0,0,1-1.36.27h-.27c-.14,0-.41-.27-.81-.82l.26-1.89V145.78c0-4.14-.45-6.22-1.34-6.22-1.27,0-1.9-.18-1.9-.53v-.28Z" transform="translate(-159.79 -137.55)"/><path class="cls-1" d="M227,137.57l3.29.27h4.37q2.73,0,8.21-.27l.28.55c0,.86-1,2.59-3,5.18-.5,0-.87-1.18-1.1-3.54l-1.37-.28h-2.19c-1.83.23-2.74.59-2.74,1.1v1.1c0,1.17-.08,3-.26,5.46a9.91,9.91,0,0,1,2.45-.55H239c1.1.12,1.64.4,1.64.82-.42,1.1-1.06,1.65-1.91,1.65-.23,0-1.14-.1-2.74-.28-2.19,0-3.29,1-3.29,3v2.74c0,2.19.64,3.29,1.92,3.29a8.16,8.16,0,0,0,1.92.27c2.3,0,4.12-1.18,5.47-3.56a2.06,2.06,0,0,1,.82-.27l.28.55q0,5.2-1.64,5.2c-2.35,0-4.9-.09-7.67-.27a47.34,47.34,0,0,1-4.92.27.24.24,0,0,0-.27-.27q.27-4.11.27-6V140.85c0-1.06-.82-1.7-2.46-1.91l-.28-.55C226.14,138.25,226.42,138,227,137.57Z" transform="translate(-159.79 -137.55)"/><path class="cls-1" d="M256.21,137.75h.26q7.81,0,7.82,4.85v2.15q0,5.22-8.89,6.19h-.27c-1.26-.17-1.89-.44-1.89-.8.36-.36,1.52-.63,3.5-.81a4.89,4.89,0,0,0,3.5-5.11c0-3.06-1.26-4.58-3.77-4.58h-2.15c-2,0-3,1.26-3,3.77v.26q0,14.28,1.35,14.29c1.43.32,2.15.68,2.15,1.06v.28l-.28.54c-1.78-.18-3.13-.27-4-.27h-1.08l-1.34.27a.48.48,0,0,0-.55-.54l.28-2.7V143.41c-.11-2.87-1.09-4.31-3-4.31l-.26-.54.81-.54c2.24.18,3.49.26,3.76.26A63.52,63.52,0,0,1,256.21,137.75Z" transform="translate(-159.79 -137.55)"/><path class="cls-1" d="M285.07,137.55c.73.27,1.1.53,1.1.81v2.17a2.41,2.41,0,0,1-2.72,2.73l-.28-.53.28-1.92q0-1.08-3-1.08h-1.63a1.83,1.83,0,0,0-1.1,1.9V155q0,3.67,2.73,4.36a.24.24,0,0,1,.27.27l-.27.55-3.27-.28h-3l-.81-.54a19.2,19.2,0,0,0,.54-4.63v-2.45a.24.24,0,0,1,.27-.27l-.27-.55V141.36a2,2,0,0,0-.81-1.63c-3.1,0-4.64,1.08-4.64,3.25l-1.08.83h-.82c-.37,0-.55-.28-.55-.83,1-3.44,1.72-5.17,2.19-5.17h15.25Z" transform="translate(-159.79 -137.55)"/><path class="cls-1" d="M303.1,137.81h1.36a.24.24,0,0,1,.27.27l.55-.27a.24.24,0,0,1,.27.27l1.91-.27h2.17c.37.06.55.24.55.55l-3,2.17q-7.44,13.86-8.44,16.35l-.28,1.64c1.58.49,2.4.94,2.47,1.35a.48.48,0,0,1-.55.55h-3l-3.27.28-.27-.55q0-.71,2.72-4.63a2.15,2.15,0,0,0,.28-1.09q-6.36-15-8.45-15-.81,0-.81-.54v-.28c.05-.36.23-.55.54-.55h5.17q1.21,1.69,6,12.27h.54q4.08-6.91,4.08-9.54V140l-1.63-1.37C302.28,138.37,302.56,138.1,303.1,137.81Z" transform="translate(-159.79 -137.55)"/><path class="cls-1" d="M317.41,137.86c1.8.18,3.16.27,4.06.27H322l2.69-.27c.51.49,1.05,2.48,1.63,5.95q3.6,11.06,5.42,14.09,2.34.72,2.43,1.35v.26a.48.48,0,0,1-.53.55q-4.76-.28-6-.28-2.25-7.29-3-7.57h-.53c-5.24,0-7.85.54-7.85,1.62a9.68,9.68,0,0,0-.55,2.44v.27c0,1.15,1.08,2,3.26,2.44v.53a.49.49,0,0,1-.55.55h-5.42c-.45,0-.71-.36-.81-1.08q0-1.8,7.31-18.14v-.55a7.63,7.63,0,0,0-3-.81v-.54Zm4.06,3.51q-3.25,7.15-3.26,8.4V150c.55,0,.83.09.83.26.18,0,.27-.08.27-.26l1.89.26h.27l2.71-.26v-.27a84.75,84.75,0,0,0-2.44-8.4Z" transform="translate(-159.79 -137.55)"/><path class="cls-1" d="M346.88,137.75h.26q7.82,0,7.82,4.85v2.15q0,5.22-8.89,6.19h-.27c-1.26-.17-1.89-.44-1.89-.8.36-.36,1.52-.63,3.5-.81a4.89,4.89,0,0,0,3.5-5.11c0-3.06-1.26-4.58-3.77-4.58H345q-3,0-3,3.77v.26Q342,158,343.38,158c1.43.32,2.15.68,2.15,1.06v.28l-.28.54c-1.78-.18-3.13-.27-4-.27h-1.08l-1.34.27a.48.48,0,0,0-.55-.54l.28-2.7V143.41q-.15-4.31-3-4.31l-.26-.54.81-.54c2.24.18,3.49.26,3.76.26A63.52,63.52,0,0,1,346.88,137.75Z" transform="translate(-159.79 -137.55)"/></svg>