<svg id="Слой_1" data-name="Слой 1" xmlns="http://www.w3.org/2000/svg" viewBox="0 0 318.15 26.66"><defs><style>.cls-1{fill:#201600;}</style></defs><title>редактирование(з)</title><path class="cls-1" d="M102.51,128.64h.25q7.83,0,7.82,4.85v2.15q0,5.22-8.88,6.19h-.28c-1.25-.17-1.88-.44-1.88-.81.35-.35,1.52-.62,3.5-.8a4.9,4.9,0,0,0,3.5-5.12q0-4.57-3.78-4.58h-2.14q-3,0-3,3.78v.26q0,14.28,1.36,14.28c1.43.33,2.14.68,2.14,1.07v.27l-.27.55c-1.79-.18-3.13-.27-4-.27H95.76l-1.33.27a.49.49,0,0,0-.55-.55l.27-2.69V134.3Q94,130,91.18,130l-.25-.55.8-.53c2.24.17,3.5.26,3.76.26A61.12,61.12,0,0,1,102.51,128.64Z" transform="translate(-90.93 -128.35)"/><path class="cls-1" d="M113.57,128.45l3.28.28h4.37c1.83,0,4.56-.09,8.22-.28l.27.55q0,1.29-3,5.19c-.5,0-.86-1.18-1.1-3.54l-1.37-.28H122c-1.82.22-2.74.59-2.74,1.1v1.09c0,1.18-.08,3-.26,5.47a9.91,9.91,0,0,1,2.45-.55h4.11c1.1.12,1.65.39,1.65.82-.43,1.09-1.07,1.64-1.92,1.64-.22,0-1.14-.09-2.74-.27q-3.28,0-3.29,3v2.74c0,2.19.64,3.29,1.92,3.29a8.16,8.16,0,0,0,1.92.27q3.45,0,5.48-3.56a2,2,0,0,1,.82-.27l.27.54q0,5.2-1.64,5.21c-2.35,0-4.9-.09-7.67-.28a44.69,44.69,0,0,1-4.92.28c0-.19-.09-.28-.27-.28.18-2.74.27-4.74.27-6V131.74q0-1.59-2.46-1.92l-.27-.54C112.75,129.13,113,128.86,113.57,128.45Z" transform="translate(-90.93 -128.35)"/><path class="cls-1" d="M139.77,128.73a24.54,24.54,0,0,1,3.83.27,17,17,0,0,1,3-.27l.27.55v.27a2.24,2.24,0,0,1-.27,1.1q4.47,14.55,6.57,18.06l.55-.28c.48,0,.94.46,1.37,1.37a12.71,12.71,0,0,1-3.29,5.21h-.27l-.55-.28.27-1.37v-1.64c0-.26-.27-.54-.82-.82h-12.6q-2.65,0-5.19,3.83h-.27a.48.48,0,0,1-.55-.55q0-5.48,2.72-5.47l6.85-17.79a.49.49,0,0,1-.55-.55l-.54.28h-.55c-.27,0-.54-.28-.82-.83v-.27C139,129.29,139.22,129,139.77,128.73Zm3,4.11q-5.47,13.4-5.48,16.14h10.41c.26,0,.54-.27.82-.82q-4.92-14.46-5.48-15.32Z" transform="translate(-90.93 -128.35)"/><path class="cls-1" d="M161.65,128.74c1.8.19,3.16.28,4.06.28h.55l2.69-.28q.77.75,1.63,5.95,3.61,11.07,5.42,14.09c1.56.49,2.37.94,2.43,1.36v.26a.47.47,0,0,1-.53.54c-3.17-.18-5.15-.27-6-.27-1.51-4.86-2.5-7.38-3-7.58h-.53q-7.84,0-7.85,1.63a9.72,9.72,0,0,0-.55,2.43v.28c0,1.15,1.09,2,3.26,2.43v.54a.48.48,0,0,1-.55.54h-5.42c-.44,0-.71-.36-.8-1.08q0-1.79,7.3-18.13v-.55a7.23,7.23,0,0,0-3-.81v-.55Zm4.06,3.52q-3.26,7.16-3.25,8.4v.27c.54,0,.82.09.82.26a.24.24,0,0,0,.27-.26l1.89.26h.27l2.71-.26v-.27a85.25,85.25,0,0,0-2.43-8.4Z" transform="translate(-90.93 -128.35)"/><path class="cls-1" d="M181.09,128.73l3.2.26h2.4c.26,0,.53.27.81.8a20.36,20.36,0,0,0-.55,4v8.8q0,6.41,1.62,6.41c1.42.11,2.13.38,2.13.8v.26q0,.21-.81.81l-1.86-.28H183.5l-.55-.26c.18-1.77.28-3.1.28-4v-8l.27-1.6a2.61,2.61,0,0,1-.27-1.34v-2.93c0-1.25-.89-2.05-2.67-2.41v-.53Zm17.08,0,.53.79q0,1.89-7.2,8.54a100,100,0,0,0,10.39,12,.46.46,0,0,1-.53.53h-.79c-.18,0-.27-.08-.27-.26l-.54.26q-3.42,0-12-11.2v-.53q6.41-5.78,6.41-7.74l-1.6-1.33v-.27c.05-.36.23-.53.53-.53h1.07C195.06,129,196.39,128.9,198.17,128.73Z" transform="translate(-90.93 -128.35)"/><path class="cls-1" d="M222.5,128.44c.73.26,1.09.53,1.09.81v2.17a2.4,2.4,0,0,1-2.72,2.72l-.27-.53.27-1.92c0-.71-1-1.08-3-1.08h-1.63a1.83,1.83,0,0,0-1.09,1.91v13.34q0,3.67,2.72,4.35a.25.25,0,0,1,.28.28l-.28.54-3.27-.27h-3l-.8-.55a19.63,19.63,0,0,0,.53-4.62v-2.45a.25.25,0,0,1,.27-.28l-.27-.54V132.24a2,2,0,0,0-.81-1.63q-4.64,0-4.64,3.26l-1.08.82H204c-.37,0-.55-.27-.55-.82q1.5-5.18,2.19-5.17h15.25Z" transform="translate(-90.93 -128.35)"/><path class="cls-1" d="M232.05,128.73c0,.35.23.53.54.53-.18,2.67-.26,4.62-.26,5.86v10.41q2.11-1.74,9.6-14.14c1.34-1.6,2.49-2.4,3.47-2.4h1.06a49.11,49.11,0,0,0-.53,5.87v4.53q0,9.88,1.87,9.88c.88,0,1.33.31,1.33.79,0,.27-.36.54-1.07.81-1.82-.19-3.24-.28-4.28-.28h-1.06l-.53-.26c.18-4.18.27-7.3.27-9.34v-2.93l-.27-2.67q-2,2-7.73,11.48c-2.11,2.66-3.89,4-5.34,4-.71-.27-1.07-.54-1.07-.81a17.64,17.64,0,0,0,.53-3.47V136.46a2.12,2.12,0,0,0-.26-1.07l.26-.53c0-2.85-.53-4.28-1.59-4.28-.9,0-1.34-.26-1.34-.79,0-.25.27-.52.8-.8h1.07C228.45,129,230,128.9,232.05,128.73Z" transform="translate(-90.93 -128.35)"/><path class="cls-1" d="M262.48,128.64h.26q7.83,0,7.82,4.85v2.15q0,5.22-8.88,6.19h-.28c-1.25-.17-1.88-.44-1.88-.81.35-.35,1.52-.62,3.5-.8a4.9,4.9,0,0,0,3.5-5.12q0-4.57-3.78-4.58H260.6q-3,0-3,3.78v.26q0,14.28,1.35,14.28c1.44.33,2.15.68,2.15,1.07v.27l-.27.55c-1.79-.18-3.13-.27-4-.27h-1.08l-1.33.27a.49.49,0,0,0-.55-.55l.27-2.69V134.3q-.15-4.31-3-4.31l-.25-.55.8-.53c2.24.17,3.5.26,3.76.26A61.13,61.13,0,0,1,262.48,128.64Z" transform="translate(-90.93 -128.35)"/><path class="cls-1" d="M285.54,128.35a8.5,8.5,0,0,1,8,5.06,11.61,11.61,0,0,1,.53,3.2v1.87q0,12.27-11.73,12.27h-1.08q-6.21,0-8.26-7.46a32.11,32.11,0,0,1-.53-5.34Q272.47,128.35,285.54,128.35ZM285,130.2h-.8q-8,0-8,7.47.8,11.47,5.88,11.48c0,.18.44.27,1.34.27q3.55,0,6.13-4.81a27.4,27.4,0,0,0,.8-6.4v-.79q0-7.47-4.8-7.47Z" transform="translate(-90.93 -128.35)"/><path class="cls-1" d="M296.58,128.77c1.05,0,2.49.09,4.34.28,3.07-.19,6.06-.28,8.95-.28,1.62.62,2.43,1.52,2.43,2.71v1.36q0,1.54-3.51,5.15v.28c3.79,1.38,5.69,3.18,5.69,5.42v.82q0,6.77-6.79,6.77a63.27,63.27,0,0,0-8.95-.55l-.25-.53a19.49,19.49,0,0,0,.53-3.53V133.38c0-2.17-.9-3.25-2.71-3.25l-.27-.55v-.26C296.1,129,296.28,128.77,296.58,128.77Zm6.24,3v11.12a.24.24,0,0,1-.27.26l.27.55v3.25q0,2.16,1.89,2.16h1.37q5.15,0,5.14-3.79V145q0-2.35-6-4.88l-.28-.54c2.54-2.59,3.81-4.77,3.81-6.51v-1.35a2.39,2.39,0,0,0-2.18-1.36C304.09,130.75,302.82,131.2,302.82,131.76Z" transform="translate(-90.93 -128.35)"/><path class="cls-1" d="M321.49,128.74c1.81.19,3.16.28,4.06.28h.55l2.7-.28c.5.5,1.05,2.48,1.62,5.95q3.61,11.07,5.42,14.09c1.56.49,2.38.94,2.44,1.36v.26a.48.48,0,0,1-.54.54q-4.74-.27-6-.27c-1.5-4.86-2.5-7.38-3-7.58h-.54q-7.85,0-7.85,1.63a10.21,10.21,0,0,0-.55,2.43v.28c0,1.15,1.09,2,3.26,2.43v.54a.48.48,0,0,1-.55.54h-5.41q-.68,0-.81-1.08,0-1.79,7.3-18.13v-.55a7.16,7.16,0,0,0-3-.81v-.55Zm4.06,3.52q-3.26,7.16-3.25,8.4v.27c.55,0,.82.09.82.26a.24.24,0,0,0,.27-.26l1.89.26h.27l2.71-.26v-.27a85.25,85.25,0,0,0-2.43-8.4Z" transform="translate(-90.93 -128.35)"/><path class="cls-1" d="M340.72,128.73a20.77,20.77,0,0,1,2.94.26,23,23,0,0,1,3.2-.26c.06.35.23.53.53.53a6,6,0,0,0-.79,2.66c.17,2.41.26,4.19.26,5.34h.27a21.15,21.15,0,0,1,2.94-.27h7.47v-1.6c0-3.2-.54-4.81-1.61-4.81-1.07-.17-1.6-.43-1.6-.79v-.27c0-.25.27-.52.8-.79H361l.53.26q-.27,3.13-.27,4.53v4a22.52,22.52,0,0,1-.26,2.94c0,.18.08.27.26.27a13.06,13.06,0,0,0-.26,2.13c0,3.74.44,5.6,1.32,5.6,1.25.25,1.87.6,1.87,1.07v.27c0,.27-.35.53-1.06.79-.17,0-.88-.08-2.13-.26a31.5,31.5,0,0,1-3.47.26c0-.17-.09-.26-.28-.26.19-3.56.28-6.22.28-8v-2.66c0-.37-.18-.55-.53-.55h-2.68a14.86,14.86,0,0,1-2.66-.26l-4.81.53v5.35c0,3.85-1.52,6.07-4.54,6.66h-.79v-.26a25.28,25.28,0,0,0,1.6-5.61c0-.18-.09-.26-.28-.26l.28-1.34v-2.66a2,2,0,0,0-.28-1.07,2,2,0,0,0,.28-1.08,8.86,8.86,0,0,1-.28-1.06h.28l-.28-.54v-1.6c0-.17.1-.25.28-.25l-.28-.55v-2.39c0-1.79-1-2.68-2.93-2.68l-.26-.53C339.66,129.07,340,128.81,340.72,128.73Z" transform="translate(-90.93 -128.35)"/><path class="cls-1" d="M372.77,128.73c.05.35.23.53.53.53q-.26,4-.26,5.86v10.41q2.11-1.74,9.6-14.14c1.34-1.6,2.5-2.4,3.47-2.4h1.07a47.06,47.06,0,0,0-.53,5.87v4.53q0,9.88,1.87,9.88c.88,0,1.32.31,1.32.79,0,.27-.35.54-1.06.81-1.82-.19-3.24-.28-4.28-.28h-1.06l-.54-.26c.19-4.18.28-7.3.28-9.34v-2.93l-.28-2.67q-2,2-7.73,11.48c-2.11,2.66-3.89,4-5.34,4-.71-.27-1.06-.54-1.06-.81a18.45,18.45,0,0,0,.53-3.47V136.46a2.23,2.23,0,0,0-.26-1.07l.26-.53c0-2.85-.53-4.28-1.6-4.28-.89,0-1.34-.26-1.34-.79,0-.25.27-.52.81-.8h1.07C369.17,129,370.68,128.9,372.77,128.73Z" transform="translate(-90.93 -128.35)"/><path class="cls-1" d="M392.93,128.45l3.29.28h4.36q2.75,0,8.22-.28l.27.55q0,1.29-3,5.19c-.5,0-.86-1.18-1.09-3.54l-1.37-.28h-2.19c-1.83.22-2.74.59-2.74,1.1v1.09c0,1.18-.09,3-.26,5.47a9.81,9.81,0,0,1,2.45-.55H405c1.09.12,1.64.39,1.64.82-.43,1.09-1.07,1.64-1.92,1.64-.22,0-1.13-.09-2.74-.27q-3.29,0-3.28,3v2.74c0,2.19.64,3.29,1.91,3.29a8.16,8.16,0,0,0,1.92.27q3.45,0,5.48-3.56a2,2,0,0,1,.82-.27l.27.54c0,3.47-.54,5.21-1.64,5.21q-3.51,0-7.67-.28a44.51,44.51,0,0,1-4.91.28.24.24,0,0,0-.28-.28c.19-2.74.28-4.74.28-6V131.74c0-1.06-.82-1.7-2.47-1.92l-.27-.54C392.11,129.13,392.38,128.86,392.93,128.45Z" transform="translate(-90.93 -128.35)"/></svg>