<svg id="Слой_1" data-name="Слой 1" xmlns="http://www.w3.org/2000/svg" viewBox="0 0 245.31 26.99"><defs><style>.cls-1{fill:#201600;}</style></defs><title>регистрация(з)</title><path class="cls-1" d="M135.67,136.63h.26q7.81,0,7.82,4.86v2.14q0,5.22-8.89,6.2h-.27c-1.26-.18-1.89-.44-1.89-.81.36-.35,1.53-.62,3.5-.81a4.88,4.88,0,0,0,3.5-5.11c0-3-1.25-4.58-3.77-4.58h-2.15q-3,0-3,3.77v.26q0,14.3,1.35,14.29c1.43.33,2.15.68,2.15,1.07v.27l-.28.55c-1.78-.19-3.13-.28-4-.28h-1.08l-1.34.28a.48.48,0,0,0-.55-.55l.28-2.69v-13.2q-.15-4.31-3-4.3l-.26-.55.81-.53c2.24.17,3.49.26,3.76.26A61.56,61.56,0,0,1,135.67,136.63Z" transform="translate(-124.09 -136.04)"/><path class="cls-1" d="M146.73,136.45l3.29.28h4.37c1.82,0,4.56-.1,8.21-.28l.28.55q0,1.29-3,5.19c-.49,0-.86-1.18-1.09-3.55l-1.37-.27h-2.19c-1.83.22-2.74.59-2.74,1.09v1.1c0,1.18-.09,3-.26,5.46a10.31,10.31,0,0,1,2.45-.55h4.11c1.09.13,1.64.4,1.64.83-.42,1.09-1.06,1.64-1.91,1.64-.23,0-1.14-.09-2.74-.27-2.2,0-3.29,1-3.29,3v2.74c0,2.19.64,3.28,1.92,3.28a7.72,7.72,0,0,0,1.91.28c2.31,0,4.13-1.19,5.48-3.56a2,2,0,0,1,.82-.28l.28.55q0,5.2-1.65,5.2-3.51,0-7.67-.27a47,47,0,0,1-4.91.27.24.24,0,0,0-.27-.27q.27-4.11.27-6V139.74q0-1.61-2.46-1.92l-.28-.55C145.91,137.13,146.19,136.86,146.73,136.45Z" transform="translate(-124.09 -136.04)"/><path class="cls-1" d="M165.14,136.73c2.47.18,4.3.27,5.48.27h2.19a2.24,2.24,0,0,0,1.1-.27l.55.27q3.56-.27,5.73-.27h.55c.55,0,.82.36.82,1.09-.87,3.1-1.6,4.64-2.19,4.64-.54-.18-.81-.72-.81-1.63h.28c0-1.64-1-2.46-3-2.46q-4.67,0-4.66,1.37v9.84q0,7.39,1.92,7.4c1.46.48,2.19.94,2.19,1.37,0,.27-.37.54-1.1.82l-4.11-.55a14.05,14.05,0,0,1-2.46.27l-.55-1.09a23.52,23.52,0,0,0,.55-3.56q-.27-12.42-.27-14.5c0-.59-.92-1.14-2.74-1.65v-.54Z" transform="translate(-124.09 -136.04)"/><path class="cls-1" d="M189.61,136.73c0,.35.23.53.53.53q-.25,4-.25,5.86v10.4q2.1-1.72,9.6-14.13c1.34-1.6,2.49-2.41,3.47-2.41H204a49.41,49.41,0,0,0-.53,5.88v4.53c0,6.58.62,9.88,1.87,9.88.88,0,1.32.31,1.32.79,0,.27-.35.54-1.06.8-1.82-.18-3.24-.27-4.28-.27h-1.06l-.53-.26Q200,152,200,149v-2.94l-.27-2.66q-2,2-7.73,11.47c-2.11,2.67-3.9,4-5.35,4-.71-.26-1.06-.53-1.06-.8a18.45,18.45,0,0,0,.53-3.47V144.46a2.1,2.1,0,0,0-.26-1.07l.26-.53c0-2.85-.53-4.28-1.6-4.28-.89,0-1.33-.26-1.33-.79,0-.25.26-.52.8-.81h1.07C186,137,187.52,136.9,189.61,136.73Z" transform="translate(-124.09 -136.04)"/><path class="cls-1" d="M219,136.51h3.57q5.2.21,5.21,2.19-1.75,4.11-2.19,4.11h-.55l-.55-.27.28-1.37V139.8c-.41-1.1-2.05-1.64-4.93-1.64-4.4,0-6.59,1.55-6.59,4.65v4.66q0,9,5.2,9.05H219a55.57,55.57,0,0,0,6.86-.82l.28.55c-1.66,1.82-4.13,2.74-7.41,2.74q-9.6,0-9.59-12.07v-.27q0-7.78,4.66-9A17.38,17.38,0,0,1,219,136.51Z" transform="translate(-124.09 -136.04)"/><path class="cls-1" d="M248.28,136.44c.73.26,1.1.53,1.1.8v2.18a2.41,2.41,0,0,1-2.72,2.72l-.28-.53.28-1.92q0-1.08-3-1.08H242a1.83,1.83,0,0,0-1.1,1.9v13.35q0,3.66,2.73,4.35a.24.24,0,0,1,.27.27l-.27.55-3.27-.27h-3l-.81-.55a19.14,19.14,0,0,0,.54-4.63v-2.45a.24.24,0,0,1,.27-.27l-.27-.55V140.24a2,2,0,0,0-.81-1.63c-3.1,0-4.64,1.09-4.64,3.26l-1.08.82h-.82c-.37,0-.55-.27-.55-.82q1.49-5.18,2.19-5.18h15.25Z" transform="translate(-124.09 -136.04)"/><path class="cls-1" d="M262.71,136.63H263q7.81,0,7.82,4.86v2.14q0,5.22-8.89,6.2h-.27c-1.26-.18-1.89-.44-1.89-.81.36-.35,1.52-.62,3.5-.81a4.89,4.89,0,0,0,3.5-5.11q0-4.57-3.77-4.58h-2.15q-3,0-3,3.77v.26q0,14.3,1.36,14.29c1.43.33,2.14.68,2.14,1.07v.27l-.27.55c-1.79-.19-3.13-.28-4-.28H256l-1.34.28a.48.48,0,0,0-.55-.55l.28-2.69v-13.2q-.17-4.31-3-4.3l-.26-.55.81-.53c2.24.17,3.49.26,3.75.26A61.71,61.71,0,0,1,262.71,136.63Z" transform="translate(-124.09 -136.04)"/><path class="cls-1" d="M277.79,136.74c1.8.18,3.16.27,4.06.27h.55l2.69-.27q.77.75,1.63,5.95,3.6,11.06,5.42,14.09,2.34.74,2.43,1.35v.26c0,.37-.18.55-.53.55q-4.76-.27-6-.27-2.25-7.29-3-7.58h-.53c-5.24,0-7.85.54-7.85,1.63a9.63,9.63,0,0,0-.55,2.43v.28c0,1.14,1.08,1.95,3.26,2.43v.53a.49.49,0,0,1-.55.55h-5.42c-.45,0-.71-.36-.81-1.08q0-1.8,7.31-18.14v-.54a7.28,7.28,0,0,0-3-.81v-.55Zm4.06,3.52q-3.25,7.14-3.26,8.39v.28c.55,0,.83.09.83.26a.24.24,0,0,0,.27-.26l1.89.26h.27l2.71-.26v-.28a85.08,85.08,0,0,0-2.44-8.39Z" transform="translate(-124.09 -136.04)"/><path class="cls-1" d="M295.68,136.57c1.57.19,2.48.28,2.71.28,1.57-.19,2.47-.28,2.69-.28l1.08.54-.27,2.7v14l.27,1.36h-.27c0,1.08.63,1.63,1.89,1.63h5.67c2.16,0,3.24-.64,3.24-1.91A7.38,7.38,0,0,0,313,153q0-14.58-1.36-14.58c-1.26-.12-1.88-.39-1.88-.81v-.54c0-.36.22-.54.53-.54l2.43.28a20.29,20.29,0,0,1,3-.28l1.08.54-.27,1.9V152.5l.27,1.34h-.27c0,2,.45,3,1.35,3s1.35.39,1.35.8q-.57,5.4-1.88,5.4-.42,0-1.08-3.24c-.56-.9-1.82-1.35-3.79-1.35q-8,.27-14,.27l-.55-.8a6,6,0,0,1,.55-2.16q-.27-6.66-.27-10.53v-5.95q0-.27-1.08-1.08a2.07,2.07,0,0,1-.81.27,2.06,2.06,0,0,0-.82-.27v-1.08Z" transform="translate(-124.09 -136.04)"/><path class="cls-1" d="M327.65,136.73c.05.35.23.53.53.53q-.26,4-.26,5.86v10.4q2.11-1.72,9.6-14.13c1.34-1.6,2.5-2.41,3.47-2.41h1.07a47.34,47.34,0,0,0-.53,5.88v4.53c0,6.58.62,9.88,1.87,9.88.88,0,1.32.31,1.32.79,0,.27-.35.54-1.06.8-1.82-.18-3.24-.27-4.28-.27h-1.06l-.54-.26q.29-6.29.28-9.34v-2.94l-.28-2.66q-2,2-7.73,11.47-3.17,4-5.34,4c-.71-.26-1.06-.53-1.06-.8a18.45,18.45,0,0,0,.53-3.47V144.46a2.2,2.2,0,0,0-.26-1.07l.26-.53c0-2.85-.53-4.28-1.6-4.28-.89,0-1.34-.26-1.34-.79q0-.37.81-.81h1.07C324.05,137,325.56,136.9,327.65,136.73Z" transform="translate(-124.09 -136.04)"/><path class="cls-1" d="M354.58,136c.2.18,3.31.37,9.33.55v.27l.55-.27h.27c.26,0,.54.27.82.82v17.85c0,1.29,1.19,1.93,3.58,1.93l.27.55V158c0,.28-.36.55-1.09.82-.17,0-.9-.09-2.21-.27l-3.83.55c0-.27-.28-.54-.83-.82.19-3,.28-5.32.28-6.87q0-3.3-.28-11.8c-.35-.85-.72-1.31-1.11-1.39h-2.19c-3.21,0-5.05.92-5.49,2.76,0,3.29,2.19,4.94,6.59,4.94h.27l1.39-.27v.82q-7.71,9.15-7.7,10.71h.27c1.29.24,1.93.52,1.93.82v.28l-.27.54c-2.15-.18-3.71-.27-4.67-.27l-2.76.27-.54-.82,8-10.16q-6.31,0-6.32-3.58a.24.24,0,0,1-.27-.27Q348.54,136,354.58,136Z" transform="translate(-124.09 -136.04)"/></svg>