<svg id="Слой_1" data-name="Слой 1" xmlns="http://www.w3.org/2000/svg" viewBox="0 0 205.64 22.6"><defs><style>.cls-1{fill:#201600;}</style></defs><title>спектакли(з)</title><path class="cls-1" d="M167.52,127.8h3.58q5.21.21,5.2,2.19-1.76,4.11-2.19,4.11h-.55l-.55-.27.28-1.37v-1.37q-.61-1.65-4.93-1.65c-4.39,0-6.59,1.56-6.59,4.66v4.66q0,9,5.2,9.05h.55a55.35,55.35,0,0,0,6.86-.82l.28.55q-2.49,2.73-7.41,2.73-9.58,0-9.59-12.06v-.28q0-7.77,4.66-9A17.38,17.38,0,0,1,167.52,127.8Z" transform="translate(-157.66 -127.72)"/><path class="cls-1" d="M177.87,128.12a18.22,18.22,0,0,1,3.51.27q7.08-.27,12.71-.27h4.59q.39,0,.81.81a3,3,0,0,0-.81,1.88v14.06c0,2.35.81,3.52,2.42,3.52.37.05.55.23.55.53v.55a.49.49,0,0,1-.55.55h-5.4a.48.48,0,0,1-.53-.55V138.39c0-1.18-.09-3-.28-5.42h.28l-.28-.53v-2.16l-1.35-.27h-4q-5.42,0-5.41,1.62V137q0,11.07,1.08,11.07c1.26.19,1.9.45,1.9.81v.55a.49.49,0,0,1-.55.55h-2.16l-1.61-.28a2.73,2.73,0,0,1-1.36.28h-.27c-.14,0-.41-.28-.81-.83l.26-1.88V136q0-6.22-1.34-6.23c-1.27,0-1.9-.17-1.9-.53v-.27Z" transform="translate(-157.66 -127.72)"/><path class="cls-1" d="M204.53,127.74l3.28.27h4.37c1.83,0,4.56-.09,8.22-.27l.27.55q0,1.29-3,5.19c-.5,0-.87-1.19-1.1-3.55l-1.37-.27H213c-1.82.22-2.74.58-2.74,1.09v1.1c0,1.17-.08,3-.26,5.46a9.91,9.91,0,0,1,2.45-.55h4.11c1.1.12,1.65.4,1.65.82q-.65,1.65-1.92,1.65c-.23,0-1.14-.09-2.74-.28q-3.28,0-3.29,3v2.74c0,2.19.64,3.28,1.92,3.28a8.23,8.23,0,0,0,1.92.28c2.3,0,4.13-1.19,5.47-3.56a1.94,1.94,0,0,1,.83-.28l.27.55q0,5.21-1.64,5.2c-2.35,0-4.9-.09-7.67-.27a47.19,47.19,0,0,1-4.92.27.24.24,0,0,0-.27-.27q.27-4.11.27-6V131q0-1.6-2.46-1.92l-.28-.55C203.7,128.42,204,128.15,204.53,127.74Z" transform="translate(-157.66 -127.72)"/><path class="cls-1" d="M223.74,128l3.2.26h2.4q.39,0,.81.81a19.53,19.53,0,0,0-.55,4v8.79c0,4.28.54,6.41,1.61,6.41q2.13.16,2.13.81v.26c0,.14-.26.41-.8.8l-1.86-.27h-4.53l-.55-.26c.18-1.78.27-3.11.27-4v-8l.28-1.59a2.62,2.62,0,0,1-.28-1.34v-2.94c0-1.25-.88-2.05-2.66-2.4v-.54Zm17.08,0,.53.79q0,1.89-7.2,8.54a100.23,100.23,0,0,0,10.39,12,.47.47,0,0,1-.53.53h-.79a.24.24,0,0,1-.27-.26l-.54.26q-3.42,0-12-11.2v-.53q6.41-5.79,6.4-7.75l-1.59-1.32v-.28c.05-.35.22-.53.53-.53h1.06C237.71,128.27,239,128.19,240.82,128Z" transform="translate(-157.66 -127.72)"/><path class="cls-1" d="M265.15,127.72c.73.27,1.09.54,1.09.81v2.18a2.41,2.41,0,0,1-2.72,2.72l-.28-.53.28-1.92q0-1.08-3-1.08h-1.63a1.82,1.82,0,0,0-1.09,1.9v13.35c0,2.44.9,3.89,2.72,4.35a.24.24,0,0,1,.27.27l-.27.55-3.27-.27h-3l-.81-.55a19.14,19.14,0,0,0,.54-4.63v-2.45a.24.24,0,0,1,.27-.27l-.27-.55V131.53a2,2,0,0,0-.81-1.63q-4.63,0-4.64,3.26l-1.08.82h-.82c-.37,0-.55-.28-.55-.82q1.48-5.17,2.19-5.18h15.25Z" transform="translate(-157.66 -127.72)"/><path class="cls-1" d="M273.32,128c1.8.18,3.16.27,4.06.27h.55l2.69-.27q.76.75,1.63,5.95,3.6,11.06,5.42,14.09c1.56.48,2.37.94,2.43,1.35v.26c0,.37-.18.55-.53.55-3.17-.18-5.16-.28-6-.28-1.5-4.85-2.49-7.38-3-7.57h-.53c-5.24,0-7.85.54-7.85,1.62a9.68,9.68,0,0,0-.55,2.44v.27c0,1.15,1.08,2,3.25,2.44v.53a.48.48,0,0,1-.54.55H269q-.68,0-.81-1.08,0-1.8,7.31-18.14v-.55a7.5,7.5,0,0,0-3-.8v-.55Zm4.06,3.51q-3.25,7.16-3.26,8.4v.28c.55,0,.82.08.82.26.19,0,.28-.09.28-.26l1.89.26h.27l2.71-.26v-.28a85.65,85.65,0,0,0-2.44-8.4Z" transform="translate(-157.66 -127.72)"/><path class="cls-1" d="M292.76,128l3.2.26h2.4c.26,0,.52.27.81.81a19.53,19.53,0,0,0-.55,4v8.79c0,4.28.54,6.41,1.61,6.41q2.13.16,2.13.81v.26c0,.14-.27.41-.8.8l-1.86-.27h-4.53l-.55-.26c.18-1.78.27-3.11.27-4v-8l.28-1.59a2.52,2.52,0,0,1-.28-1.34v-2.94c0-1.25-.89-2.05-2.66-2.4v-.54Zm17.07,0,.54.79q0,1.89-7.2,8.54a100.23,100.23,0,0,0,10.39,12,.47.47,0,0,1-.53.53h-.79c-.18,0-.28-.09-.28-.26l-.53.26q-3.42,0-12-11.2v-.53q6.4-5.79,6.4-7.75l-1.59-1.32v-.28c.05-.35.22-.53.53-.53h1.06C306.73,128.27,308.06,128.19,309.83,128Z" transform="translate(-157.66 -127.72)"/><path class="cls-1" d="M320.59,128h5.72q.9,1,7.63,17.68a4.09,4.09,0,0,0,4.07,3v.82a.48.48,0,0,1-.54.55h-5.71q-1-.84-3.27-7.63-4.59-10.65-5.17-11.17-4.9,8.81-4.9,14.7v1.37c0,.5.9,1,2.72,1.36v.54c0,.55-.36.83-1.08.83a22.17,22.17,0,0,1-3-.28,8,8,0,0,1-1.9.28,2,2,0,0,1-.55-1.1q0-2.38,7.08-18.78c-1.82-.49-2.73-.95-2.73-1.37C319.15,128.24,319.69,128,320.59,128Z" transform="translate(-157.66 -127.72)"/><path class="cls-1" d="M346.23,128c0,.36.23.54.53.54-.17,2.66-.26,4.62-.26,5.85v10.41c1.42-1.16,4.61-5.87,9.61-14.13,1.33-1.61,2.49-2.41,3.47-2.41h1.06a47.34,47.34,0,0,0-.53,5.88v4.53q0,9.87,1.87,9.87c.88.06,1.32.32,1.32.8,0,.27-.35.54-1.06.8-1.82-.18-3.24-.27-4.28-.27H356.9l-.54-.26q.28-6.28.28-9.34v-2.94l-.28-2.66q-2,1.95-7.73,11.47-3.15,4-5.34,4c-.71-.26-1.06-.53-1.06-.8a18.57,18.57,0,0,0,.53-3.47V135.74a2.08,2.08,0,0,0-.26-1.06l.26-.53c0-2.86-.53-4.28-1.6-4.28-.89,0-1.33-.26-1.33-.79,0-.26.26-.52.8-.81h1.07C342.63,128.27,344.14,128.19,346.23,128Z" transform="translate(-157.66 -127.72)"/></svg>