<?xml version="1.0" encoding="utf-8"?>
<!-- Generator: Adobe Illustrator 22.1.0, SVG Export Plug-In . SVG Version: 6.00 Build 0)  -->
<svg version="1.1" id="Слой_1" xmlns="http://www.w3.org/2000/svg" xmlns:xlink="http://www.w3.org/1999/xlink" x="0px" y="0px"
	 viewBox="0 0 1366 768" style="enable-background:new 0 0 1366 768;" xml:space="preserve">
<style type="text/css">
	.st0{fill:none;}
	.st1{fill:#371B1B;}
	.st2{opacity:0.46;}
	.st3{fill:#864833;}
	.st4{fill:#A7725B;}
	.st5{fill:#8A543F;}
	.st6{fill:url(#Новый_образец_узора_5);}
	.st7{fill:#FFFFFF;}
	.st8{fill:none;stroke:#000000;stroke-miterlimit:10;}
	.st9{fill:#98433B;}
	.st10{fill:#742433;}
</style>
<pattern  width="102" height="73.3" patternUnits="userSpaceOnUse" id="Новый_образец_узора_5" viewBox="0 -73.3 102 73.3" style="overflow:visible;">
	<g>
		<rect y="-73.3" class="st0" width="102" height="73.3"/>
		<rect y="-73.3" class="st1" width="102" height="73.3"/>
		<g id="узор_14_" class="st2">
			<path class="st3" d="M13.4-60c0,0-1.6-3-1.6-5.5c0-2.4,1.3-3.1,1.6-3.1s1.5,0.3,1.6,3.1C15.1-63,13.4-60,13.4-60z M13.4-66.8
				c-0.1,0-0.5,0.1-0.5,1c0,1.3,0.5,2.7,0.5,2.7c0.3-1.5,0.3-1.2,0.5-2.7C13.9-66.3,13.6-66.8,13.4-66.8z"/>
			<path class="st4" d="M13.4-60.7c-0.9-1.9-1-3.8-1-4.8c0-1.5,0.6-2.4,0.9-2.4c0.5,0,1.2,0.7,1.2,2.6
				C14.5-62.8,13.4-60.7,13.4-60.7z M13.4-66.8c-0.1,0-0.5,0.1-0.5,1c0,1.3,0.5,2.7,0.5,2.7c0.3-1.5,0.3-1.2,0.5-2.7
				C13.9-66.3,13.6-66.8,13.4-66.8z"/>
			<g>
				<path class="st4" d="M15-62.1C15-62.1,15-62.1,15-62.1C15-62.1,15-62.1,15-62.1c0-0.1,1.1-2.1,1.7-2.6c0,0,0,0,0.1,0
					c0,0,0,0,0,0.1C16.2-64.1,15.1-62.1,15-62.1C15.1-62.1,15-62.1,15-62.1z"/>
			</g>
			<path class="st4" d="M16.6-64.5c0,0,0-0.9,0.9-1.2c0.6-0.1,0.7,0,0.7,0s-0.4,0.8-1,1C16.8-64.5,16.6-64.5,16.6-64.5z"/>
			<path class="st4" d="M16.4-63.8c0,0,0.8-0.7,1.6-0.6c0.6,0.1,0.6,0.1,0.6,0.1s-0.6,0.7-1.4,0.6C16.4-63.8,16.4-63.8,16.4-63.8z"
				/>
			<path class="st4" d="M16-64.2c0,0-0.3-0.3-0.1-1c0.2-0.7,0.3-0.8,0.3-0.8s0.2,0.8,0.1,1.2C16.2-64.6,16-64.2,16-64.2z"/>
			<path class="st4" d="M15.3-63.1c0,0-0.5-0.5-0.2-1c0.2-0.6,0.2-0.6,0.2-0.6s0.2,0.5,0.2,1C15.5-63.2,15.3-63.1,15.3-63.1z"/>
			<path class="st4" d="M15.7-62.8c0,0,0.5,0,0.9,0c0.6,0,0.7-0.5,0.7-0.5S16.3-63.7,15.7-62.8z"/>
			<g>
				<path class="st4" d="M11.7-61.9C11.7-61.9,11.7-61.9,11.7-61.9c0,0-1.2-2-1.8-2.6c0,0,0,0,0-0.1c0,0,0,0,0.1,0
					C10.6-63.9,11.7-62,11.7-61.9C11.8-61.9,11.7-61.9,11.7-61.9C11.7-61.9,11.7-61.9,11.7-61.9z"/>
			</g>
			<path class="st4" d="M10.1-64.3c0,0,0-0.9-0.9-1.2c-0.6-0.1-0.7,0-0.7,0s0.4,0.8,1,1C9.9-64.2,10.1-64.3,10.1-64.3z"/>
			<path class="st4" d="M10.3-63.5c0,0-0.8-0.7-1.6-0.6C8.1-64,8.1-64,8.1-64s0.6,0.7,1.4,0.6C10.3-63.5,10.3-63.5,10.3-63.5z"/>
			<path class="st4" d="M10.8-64c0,0,0.3-0.3,0.1-1c-0.2-0.7-0.3-0.8-0.3-0.8s-0.2,0.8-0.1,1.2C10.5-64.4,10.8-64,10.8-64z"/>
			<path class="st4" d="M11.5-62.8c0,0,0.5-0.5,0.2-1c-0.2-0.6-0.2-0.6-0.2-0.6s-0.2,0.5-0.2,1C11.2-62.9,11.5-62.8,11.5-62.8z"/>
			<path class="st4" d="M11-62.6c0,0-0.5,0-0.9,0c-0.6,0-0.7-0.5-0.7-0.5S10.4-63.4,11-62.6z"/>
			<g>
				<path class="st5" d="M15.3-60.9c-1.8,0.5-1.7,2.8-1.7,2.8c1.5-3.5,4.1-2.4,4.8-1.6c1.4,1.6-0.3,4.4-2.2,2.6
					c-0.3-0.3,0.1-1,0.5-0.9c0.3,0.1,0,0.6,0,0.6c-0.2,0.8,0.5,0.3,0.8,0c0.7-0.8-1.2-2.4-1.9-0.5c-0.3,0.9,0.1,1.9,1.5,2.1
					c1.4,0.2,2.1-1.2,2.2-1.9C19.3-57.9,19.2-61.9,15.3-60.9z"/>
				<path class="st4" d="M17.7-57.3c-0.1,0-0.2-0.1-0.1-0.1c0.3-0.2,0.6-0.6,0.5-1.2c-0.2-1-1.6-1.3-2.6-1c-0.9,0.2-1.9,1.9-1.9,1.9
					l-0.1-0.2c0,0,0.1-2,2.2-2.4c2.1-0.5,2.8,1.2,2.9,1.4c0.1,0.2,0.2,1.4-0.7,1.7C17.8-57.3,17.8-57.3,17.7-57.3z"/>
				<path class="st5" d="M18.9-61.8c-0.6,0.5-1.8,0.9-1.8,0.9h-1.3l0.2-0.3c0,0,1.1-1.1,1.6-1.3c0.9-0.2,0.9-0.3,1.6-0.6
					C19.9-63.3,19.5-62.3,18.9-61.8z M19.6-63c0,0-1,0.6-1.7,0.7s-1.5,1.2-1.5,1.2s0.3-0.1,0.9-0.1C18.5-61.3,19.6-63,19.6-63z"/>
				<path class="st4" d="M16.1-60.7c0,0,0.2-0.8,1.9-1.3c0.8-0.2,1.6-1,1.6-0.9c0,0.4-0.6,1.6-2.3,2.1
					C16.5-60.7,16.1-60.7,16.1-60.7z"/>
				<path class="st4" d="M21.3-57.1c0,0-1,0-1.5-0.5c-0.5-0.5-0.4-1.2-0.8-2c-0.3-0.7-0.6-0.8-0.6-0.8l2,0.8c0,0,0,0.3-0.5,0.2
					c-0.5-0.1-0.3,0-0.3,0s-0.2,1,0.5,1.5C20.7-57.4,21.6-57.5,21.3-57.1z"/>
				<path class="st5" d="M17.9-60.7c0,0,1.3-0.8,1.9-0.3c0.6,0.5,0.8,0.9,1.2,0.9s0.7,0.1,0.7,0.1s-0.7,0.7-1,0.7s-0.1,0.2,0,0.5
					s0.7,1.7,0.9,1.7c0.2,0-0.8,0-1-0.3c-1-1.4-0.2-2.3-0.2-2.3s-0.9-0.8-1.4-0.8S18.4-60.5,17.9-60.7z"/>
				<path class="st5" d="M13.5-56.3c0,0,0.3,1.6,1.5,1.7c1.2,0.1,0.9-0.8,1.4-0.6c0.5,0.2,0.5,1.6-0.3,1.9c-0.8,0.2-2,0.1-2.3-0.8
					C13.4-55,13.5-56.3,13.5-56.3z"/>
				<path class="st4" d="M16.2-54.6c0.5-0.3,0.3,0.6,0,0.9c-0.5,0.5-1.9,0.5-2.3-0.5c-0.2-0.4-0.3-1-0.2-0.9
					C14.7-53.4,15.9-54.3,16.2-54.6z"/>
			</g>
			<g>
				<path class="st5" d="M11.4-60.9c1.8,0.5,1.7,2.8,1.7,2.8c-1.5-3.5-4.1-2.4-4.8-1.6c-1.4,1.6,0.3,4.4,2.2,2.6
					c0.3-0.3-0.1-1-0.5-0.9c-0.3,0.1,0,0.6,0,0.6c0.2,0.8-0.5,0.3-0.8,0c-0.7-0.8,1.2-2.4,1.9-0.5c0.3,0.9-0.1,1.9-1.5,2.1
					c-1.4,0.2-2.1-1.2-2.2-1.9C7.4-57.9,7.4-61.9,11.4-60.9z"/>
				<path class="st4" d="M9-57.3c0.1,0,0.2-0.1,0.1-0.1c-0.3-0.2-0.6-0.6-0.5-1.2c0.2-1,1.6-1.3,2.6-1c0.9,0.2,1.9,1.9,1.9,1.9
					l0.1-0.2c0,0-0.1-2-2.2-2.4C8.8-61,8.1-59.3,8-59.1c-0.1,0.2-0.2,1.4,0.7,1.7C8.8-57.3,8.9-57.3,9-57.3z"/>
				<path class="st5" d="M7.4-63.1c0.7,0.2,0.7,0.3,1.6,0.6c0.6,0.1,1.6,1.3,1.6,1.3l0.2,0.3H9.5c0,0-1.2-0.4-1.8-0.9
					S6.7-63.3,7.4-63.1z M9.4-61.2c0.6,0.1,0.9,0.1,0.9,0.1s-0.8-1-1.5-1.2S7.1-63,7.1-63S8.1-61.3,9.4-61.2z"/>
				<path class="st4" d="M10.6-60.7c0,0-0.2-0.8-1.9-1.3c-0.8-0.2-1.6-1-1.6-0.9c0,0.4,0.6,1.6,2.3,2.1
					C10.1-60.7,10.6-60.7,10.6-60.7z"/>
				<path class="st4" d="M5.3-57.1c0,0,1,0,1.5-0.5c0.5-0.5,0.4-1.2,0.8-2c0.3-0.7,0.6-0.8,0.6-0.8l-2,0.8c0,0,0,0.3,0.5,0.2
					c0.5-0.1,0.3,0,0.3,0s0.2,1-0.5,1.5C5.9-57.4,5.1-57.5,5.3-57.1z"/>
				<path class="st5" d="M8.7-60.7c0,0-1.3-0.8-1.9-0.3S6-60.2,5.7-60.2S5-60,5-60s0.7,0.7,1,0.7s0.1,0.2,0,0.5s-0.7,1.7-0.9,1.7
					s0.8,0,1-0.3c1-1.4,0.2-2.3,0.2-2.3s0.9-0.8,1.4-0.8S8.3-60.5,8.7-60.7z"/>
				<path class="st5" d="M13.1-56.3c0,0-0.3,1.6-1.5,1.7c-1.2,0.1-0.9-0.8-1.4-0.6c-0.5,0.2-0.5,1.6,0.3,1.9c0.8,0.2,2,0.1,2.3-0.8
					C13.3-55,13.1-56.3,13.1-56.3z"/>
				<path class="st4" d="M10.5-54.6c-0.5-0.3-0.3,0.6,0,0.9c0.5,0.5,1.9,0.5,2.3-0.5c0.2-0.4,0.3-1,0.2-0.9
					C12-53.4,10.8-54.3,10.5-54.6z"/>
			</g>
			<path class="st4" d="M13.4-54.2"/>
			<path class="st5" d="M13.2-58.5h0.3c0,0,0.3,0.8,0.8,1.2c0.3,0.3,0.1,0.8-0.5,0.6c-0.6-0.2-0.6-0.2-1,0c-0.5,0.2-0.8-0.1-0.6-0.6
				C12.5-57.7,12.9-57.5,13.2-58.5z"/>
			<path class="st4" d="M13.1-57.6l-0.3,0.5c-0.1,0.1,0,0.3,0.1,0.3h0.4h0.4c0.1,0,0.2-0.2,0.1-0.3l-0.3-0.4
				C13.5-57.8,13.2-57.8,13.1-57.6z"/>
			<path class="st5" d="M13.4-50.6c-1,0-1-1.2-1-1.5c0-0.8,0.9-2.1,0.9-2.1s0.9,1,1,1.6C14.6-51.8,14.2-50.6,13.4-50.6z M13.6-52.2
				c0-0.5-0.1-0.8-0.3-0.8s-0.3,0.4-0.3,0.8c0,0.5,0.1,0.8,0.3,0.8S13.6-51.8,13.6-52.2z"/>
			<path class="st4" d="M14.1-52.1c0,0.6-0.3,1-0.8,1c-0.6,0-0.8-1-0.6-1.7c0.2-0.7,0.6-1.4,0.6-1.4S14.1-52.8,14.1-52.1z
				 M13.6-52.2c0-0.5-0.1-0.8-0.3-0.8s-0.3,0.4-0.3,0.8c0,0.5,0.1,0.8,0.3,0.8S13.6-51.8,13.6-52.2z"/>
		</g>
		<g id="узор_13_" class="st2">
			<path class="st3" d="M89.2-60c0,0-1.6-3-1.6-5.5c0-2.4,1.3-3.1,1.6-3.1c0.3,0,1.5,0.3,1.6,3.1C91-63,89.2-60,89.2-60z M89.2-66.8
				c-0.1,0-0.5,0.1-0.5,1c0,1.3,0.5,2.7,0.5,2.7c0.3-1.5,0.3-1.2,0.5-2.7C89.8-66.3,89.5-66.8,89.2-66.8z"/>
			<path class="st4" d="M89.2-60.7c-0.9-1.9-1-3.8-1-4.8c0-1.5,0.6-2.4,0.9-2.4c0.5,0,1.2,0.7,1.2,2.6
				C90.3-62.8,89.2-60.7,89.2-60.7z M89.2-66.8c-0.1,0-0.5,0.1-0.5,1c0,1.3,0.5,2.7,0.5,2.7c0.3-1.5,0.3-1.2,0.5-2.7
				C89.8-66.3,89.5-66.8,89.2-66.8z"/>
			<g>
				<path class="st4" d="M90.9-62.1C90.9-62.1,90.9-62.1,90.9-62.1C90.8-62.1,90.8-62.1,90.9-62.1c0-0.1,1.1-2.1,1.7-2.6
					c0,0,0,0,0.1,0c0,0,0,0,0,0.1C92.1-64.1,90.9-62.1,90.9-62.1C90.9-62.1,90.9-62.1,90.9-62.1z"/>
			</g>
			<path class="st4" d="M92.4-64.5c0,0,0-0.9,0.9-1.2c0.6-0.1,0.7,0,0.7,0s-0.4,0.8-1,1C92.6-64.5,92.4-64.5,92.4-64.5z"/>
			<path class="st4" d="M92.3-63.8c0,0,0.8-0.7,1.6-0.6c0.6,0.1,0.6,0.1,0.6,0.1s-0.6,0.7-1.4,0.6S92.3-63.8,92.3-63.8z"/>
			<path class="st4" d="M91.8-64.2c0,0-0.3-0.3-0.1-1c0.2-0.7,0.3-0.8,0.3-0.8s0.2,0.8,0.1,1.2C92-64.6,91.8-64.2,91.8-64.2z"/>
			<path class="st4" d="M91.1-63.1c0,0-0.5-0.5-0.2-1s0.2-0.6,0.2-0.6s0.2,0.5,0.2,1C91.3-63.2,91.1-63.1,91.1-63.1z"/>
			<path class="st4" d="M91.6-62.8c0,0,0.5,0,0.9,0c0.6,0,0.7-0.5,0.7-0.5S92.2-63.7,91.6-62.8z"/>
			<g>
				<path class="st4" d="M87.5-61.9C87.5-61.9,87.5-61.9,87.5-61.9c0,0-1.2-2-1.8-2.6c0,0,0,0,0-0.1s0,0,0.1,0
					C86.4-63.9,87.5-62,87.5-61.9C87.6-61.9,87.6-61.9,87.5-61.9C87.6-61.9,87.6-61.9,87.5-61.9z"/>
			</g>
			<path class="st4" d="M86-64.3c0,0,0-0.9-0.9-1.2c-0.6-0.1-0.7,0-0.7,0s0.4,0.8,1,1C85.8-64.2,86-64.3,86-64.3z"/>
			<path class="st4" d="M86.1-63.5c0,0-0.8-0.7-1.6-0.6C83.9-64,83.9-64,83.9-64s0.6,0.7,1.4,0.6C86.1-63.5,86.1-63.5,86.1-63.5z"/>
			<path class="st4" d="M86.6-64c0,0,0.3-0.3,0.1-1c-0.2-0.7-0.3-0.8-0.3-0.8s-0.2,0.8-0.1,1.2C86.4-64.4,86.6-64,86.6-64z"/>
			<path class="st4" d="M87.3-62.8c0,0,0.5-0.5,0.2-1c-0.2-0.6-0.2-0.6-0.2-0.6s-0.2,0.5-0.2,1C87.1-62.9,87.3-62.8,87.3-62.8z"/>
			<path class="st4" d="M86.8-62.6c0,0-0.5,0-0.9,0c-0.6,0-0.7-0.5-0.7-0.5S86.3-63.4,86.8-62.6z"/>
			<g>
				<path class="st5" d="M91.1-60.9c-1.8,0.5-1.7,2.8-1.7,2.8c1.5-3.5,4.1-2.4,4.8-1.6c1.4,1.6-0.3,4.4-2.2,2.6
					c-0.3-0.3,0.1-1,0.5-0.9c0.3,0.1,0,0.6,0,0.6c-0.2,0.8,0.5,0.3,0.8,0c0.7-0.8-1.2-2.4-1.9-0.5c-0.3,0.9,0.1,1.9,1.5,2.1
					c1.4,0.2,2.1-1.2,2.2-1.9C95.1-57.9,95.1-61.9,91.1-60.9z"/>
				<path class="st4" d="M93.5-57.3c-0.1,0-0.2-0.1-0.1-0.1c0.3-0.2,0.6-0.6,0.5-1.2c-0.2-1-1.6-1.3-2.6-1c-0.9,0.2-1.9,1.9-1.9,1.9
					l-0.1-0.2c0,0,0.1-2,2.2-2.4c2.1-0.5,2.8,1.2,2.9,1.4c0.1,0.2,0.2,1.4-0.7,1.7C93.7-57.3,93.6-57.3,93.5-57.3z"/>
				<path class="st5" d="M94.7-61.8c-0.6,0.5-1.8,0.9-1.8,0.9h-1.3l0.2-0.3c0,0,1.1-1.1,1.6-1.3c0.9-0.2,0.9-0.3,1.6-0.6
					C95.8-63.3,95.3-62.3,94.7-61.8z M95.4-63c0,0-1,0.6-1.7,0.7c-0.7,0.1-1.5,1.2-1.5,1.2s0.3-0.1,0.9-0.1
					C94.4-61.3,95.4-63,95.4-63z"/>
				<path class="st4" d="M91.9-60.7c0,0,0.2-0.8,1.9-1.3c0.8-0.2,1.6-1,1.6-0.9c0,0.4-0.6,1.6-2.3,2.1
					C92.4-60.7,91.9-60.7,91.9-60.7z"/>
				<path class="st4" d="M97.2-57.1c0,0-1,0-1.5-0.5s-0.4-1.2-0.8-2c-0.3-0.7-0.6-0.8-0.6-0.8l2,0.8c0,0,0,0.3-0.5,0.2
					c-0.5-0.1-0.3,0-0.3,0s-0.2,1,0.5,1.5C96.6-57.4,97.4-57.5,97.2-57.1z"/>
				<path class="st5" d="M93.8-60.7c0,0,1.3-0.8,1.9-0.3s0.8,0.9,1.2,0.9s0.7,0.1,0.7,0.1s-0.7,0.7-1,0.7s-0.1,0.2,0,0.5
					s0.7,1.7,0.9,1.7s-0.8,0-1-0.3c-1-1.4-0.2-2.3-0.2-2.3s-0.9-0.8-1.4-0.8C94.3-60.6,94.3-60.5,93.8-60.7z"/>
				<path class="st5" d="M89.4-56.3c0,0,0.3,1.6,1.5,1.7c1.2,0.1,0.9-0.8,1.4-0.6c0.5,0.2,0.5,1.6-0.3,1.9c-0.8,0.2-2,0.1-2.3-0.8
					C89.2-55,89.4-56.3,89.4-56.3z"/>
				<path class="st4" d="M92-54.6c0.5-0.3,0.3,0.6,0,0.9c-0.5,0.5-1.9,0.5-2.3-0.5c-0.2-0.4-0.3-1-0.2-0.9
					C90.5-53.4,91.7-54.3,92-54.6z"/>
			</g>
			<g>
				<path class="st5" d="M87.2-60.9c1.8,0.5,1.7,2.8,1.7,2.8c-1.5-3.5-4.1-2.4-4.8-1.6c-1.4,1.6,0.3,4.4,2.2,2.6
					c0.3-0.3-0.1-1-0.5-0.9c-0.3,0.1,0,0.6,0,0.6c0.2,0.8-0.5,0.3-0.8,0c-0.7-0.8,1.2-2.4,1.9-0.5c0.3,0.9-0.1,1.9-1.5,2.1
					c-1.4,0.2-2.1-1.2-2.2-1.9C83.2-57.9,83.3-61.9,87.2-60.9z"/>
				<path class="st4" d="M84.8-57.3c0.1,0,0.2-0.1,0.1-0.1c-0.3-0.2-0.6-0.6-0.5-1.2c0.2-1,1.6-1.3,2.6-1c0.9,0.2,1.9,1.9,1.9,1.9
					l0.1-0.2c0,0-0.1-2-2.2-2.4c-2.1-0.5-2.8,1.2-2.9,1.4c-0.1,0.2-0.2,1.4,0.7,1.7C84.7-57.3,84.8-57.3,84.8-57.3z"/>
				<path class="st5" d="M83.3-63.1c0.7,0.2,0.7,0.3,1.6,0.6c0.6,0.1,1.6,1.3,1.6,1.3l0.2,0.3h-1.3c0,0-1.2-0.4-1.8-0.9
					C83-62.3,82.6-63.3,83.3-63.1z M85.3-61.2c0.6,0.1,0.9,0.1,0.9,0.1s-0.8-1-1.5-1.2C84-62.4,82.9-63,82.9-63S84-61.3,85.3-61.2z"
					/>
				<path class="st4" d="M86.4-60.7c0,0-0.2-0.8-1.9-1.3c-0.8-0.2-1.6-1-1.6-0.9c0,0.4,0.6,1.6,2.3,2.1C86-60.7,86.4-60.7,86.4-60.7
					z"/>
				<path class="st4" d="M81.2-57.1c0,0,1,0,1.5-0.5c0.5-0.5,0.4-1.2,0.8-2c0.3-0.7,0.6-0.8,0.6-0.8l-2,0.8c0,0,0,0.3,0.5,0.2
					c0.5-0.1,0.3,0,0.3,0s0.2,1-0.5,1.5C81.8-57.4,80.9-57.5,81.2-57.1z"/>
				<path class="st5" d="M84.6-60.7c0,0-1.3-0.8-1.9-0.3s-0.8,0.9-1.2,0.9S80.8-60,80.8-60s0.7,0.7,1,0.7c0.3,0,0.1,0.2,0,0.5
					c-0.1,0.2-0.7,1.7-0.9,1.7s0.8,0,1-0.3c1-1.4,0.2-2.3,0.2-2.3s0.9-0.8,1.4-0.8C84.1-60.6,84.1-60.5,84.6-60.7z"/>
				<path class="st5" d="M89-56.3c0,0-0.3,1.6-1.5,1.7c-1.2,0.1-0.9-0.8-1.4-0.6c-0.5,0.2-0.5,1.6,0.3,1.9c0.8,0.2,2,0.1,2.3-0.8
					C89.1-55,89-56.3,89-56.3z"/>
				<path class="st4" d="M86.3-54.6c-0.5-0.3-0.3,0.6,0,0.9c0.5,0.5,1.9,0.5,2.3-0.5c0.2-0.4,0.3-1,0.2-0.9
					C87.8-53.4,86.6-54.3,86.3-54.6z"/>
			</g>
			<path class="st4" d="M89.2-54.2"/>
			<path class="st5" d="M89-58.5h0.3c0,0,0.3,0.8,0.8,1.2c0.3,0.3,0.1,0.8-0.5,0.6c-0.6-0.2-0.6-0.2-1,0c-0.5,0.2-0.8-0.1-0.6-0.6
				C88.3-57.7,88.8-57.5,89-58.5z"/>
			<path class="st4" d="M89-57.6l-0.3,0.5c-0.1,0.1,0,0.3,0.1,0.3h0.4h0.4c0.1,0,0.2-0.2,0.1-0.3l-0.3-0.4
				C89.3-57.8,89.1-57.8,89-57.6z"/>
			<path class="st5" d="M89.2-50.6c-1,0-1-1.2-1-1.5c0-0.8,0.9-2.1,0.9-2.1s0.9,1,1,1.6C90.4-51.8,90.1-50.6,89.2-50.6z M89.5-52.2
				c0-0.5-0.1-0.8-0.3-0.8s-0.3,0.4-0.3,0.8c0,0.5,0.1,0.8,0.3,0.8S89.5-51.8,89.5-52.2z"/>
			<path class="st4" d="M89.9-52.1c0,0.6-0.3,1-0.8,1c-0.6,0-0.8-1-0.6-1.7s0.6-1.4,0.6-1.4S89.9-52.8,89.9-52.1z M89.5-52.2
				c0-0.5-0.1-0.8-0.3-0.8s-0.3,0.4-0.3,0.8c0,0.5,0.1,0.8,0.3,0.8S89.5-51.8,89.5-52.2z"/>
		</g>
		<g id="узор_12_" class="st2">
			<path class="st3" d="M50.4-15c0,0-1.6-3-1.6-5.5s1.3-3.1,1.6-3.1c0.3,0,1.5,0.3,1.6,3.1C52.1-18,50.4-15,50.4-15z M50.4-21.8
				c-0.1,0-0.5,0.1-0.5,1c0,1.3,0.5,2.7,0.5,2.7c0.3-1.5,0.3-1.2,0.5-2.7C50.9-21.3,50.6-21.8,50.4-21.8z"/>
			<path class="st4" d="M50.4-15.7c-0.9-1.9-1-3.8-1-4.8c0-1.5,0.6-2.4,0.9-2.4c0.5,0,1.2,0.7,1.2,2.6
				C51.5-17.8,50.4-15.7,50.4-15.7z M50.4-21.8c-0.1,0-0.5,0.1-0.5,1c0,1.3,0.5,2.7,0.5,2.7c0.3-1.5,0.3-1.2,0.5-2.7
				C50.9-21.3,50.6-21.8,50.4-21.8z"/>
			<g>
				<path class="st4" d="M52-17.1C52-17.1,52-17.1,52-17.1C52-17.1,52-17.1,52-17.1c0-0.1,1.1-2.1,1.7-2.6c0,0,0,0,0.1,0
					c0,0,0,0,0,0.1C53.2-19.1,52.1-17.1,52-17.1C52.1-17.1,52-17.1,52-17.1z"/>
			</g>
			<path class="st4" d="M53.6-19.5c0,0,0-0.9,0.9-1.2c0.6-0.1,0.7,0,0.7,0s-0.4,0.8-1,1C53.8-19.5,53.6-19.5,53.6-19.5z"/>
			<path class="st4" d="M53.4-18.8c0,0,0.8-0.7,1.6-0.6c0.6,0.1,0.6,0.1,0.6,0.1s-0.6,0.7-1.4,0.6C53.4-18.8,53.4-18.8,53.4-18.8z"
				/>
			<path class="st4" d="M53-19.2c0,0-0.3-0.3-0.1-1c0.2-0.7,0.3-0.8,0.3-0.8s0.2,0.8,0.1,1.2C53.2-19.6,53-19.2,53-19.2z"/>
			<path class="st4" d="M52.3-18.1c0,0-0.5-0.5-0.2-1c0.2-0.6,0.2-0.6,0.2-0.6s0.2,0.5,0.2,1C52.5-18.2,52.3-18.1,52.3-18.1z"/>
			<path class="st4" d="M52.7-17.8c0,0,0.5,0,0.9,0c0.6,0,0.7-0.5,0.7-0.5S53.3-18.7,52.7-17.8z"/>
			<g>
				<path class="st4" d="M48.7-16.9C48.7-16.9,48.7-16.9,48.7-16.9c0,0-1.2-2-1.8-2.6c0,0,0,0,0-0.1c0,0,0,0,0.1,0
					C47.6-18.9,48.7-17,48.7-16.9C48.8-16.9,48.7-16.9,48.7-16.9C48.7-16.9,48.7-16.9,48.7-16.9z"/>
			</g>
			<path class="st4" d="M47.1-19.3c0,0,0-0.9-0.9-1.2c-0.6-0.1-0.7,0-0.7,0s0.4,0.8,1,1C46.9-19.2,47.1-19.3,47.1-19.3z"/>
			<path class="st4" d="M47.3-18.5c0,0-0.8-0.7-1.6-0.6C45.1-19,45.1-19,45.1-19s0.6,0.7,1.4,0.6S47.3-18.5,47.3-18.5z"/>
			<path class="st4" d="M47.8-19c0,0,0.3-0.3,0.1-1s-0.3-0.8-0.3-0.8s-0.2,0.8-0.1,1.2S47.8-19,47.8-19z"/>
			<path class="st4" d="M48.5-17.8c0,0,0.5-0.5,0.2-1c-0.2-0.6-0.2-0.6-0.2-0.6s-0.2,0.5-0.2,1C48.2-17.9,48.5-17.8,48.5-17.8z"/>
			<path class="st4" d="M48-17.6c0,0-0.5,0-0.9,0c-0.6,0-0.7-0.5-0.7-0.5S47.4-18.4,48-17.6z"/>
			<g>
				<path class="st5" d="M52.3-15.9c-1.8,0.5-1.7,2.8-1.7,2.8c1.5-3.5,4.1-2.4,4.8-1.6c1.4,1.6-0.3,4.4-2.2,2.6
					c-0.3-0.3,0.1-1,0.5-0.9c0.3,0.1,0,0.6,0,0.6c-0.2,0.8,0.5,0.3,0.8,0c0.7-0.8-1.2-2.4-1.9-0.5c-0.3,0.9,0.1,1.9,1.5,2.1
					c1.4,0.2,2.1-1.2,2.2-1.9C56.3-12.9,56.2-16.9,52.3-15.9z"/>
				<path class="st4" d="M54.7-12.3c-0.1,0-0.2-0.1-0.1-0.1c0.3-0.2,0.6-0.6,0.5-1.2c-0.2-1-1.6-1.3-2.6-1c-0.9,0.2-1.9,1.9-1.9,1.9
					l-0.1-0.2c0,0,0.1-2,2.2-2.4s2.8,1.2,2.9,1.4c0.1,0.2,0.2,1.4-0.7,1.7C54.8-12.3,54.8-12.3,54.7-12.3z"/>
				<path class="st5" d="M55.9-16.8c-0.6,0.5-1.8,0.9-1.8,0.9h-1.3l0.2-0.3c0,0,1.1-1.1,1.6-1.3c0.9-0.2,0.9-0.3,1.6-0.6
					C56.9-18.3,56.5-17.3,55.9-16.8z M56.6-18c0,0-1,0.6-1.7,0.7c-0.7,0.1-1.5,1.2-1.5,1.2s0.3-0.1,0.9-0.1
					C55.5-16.3,56.6-18,56.6-18z"/>
				<path class="st4" d="M53.1-15.7c0,0,0.2-0.8,1.9-1.3c0.8-0.2,1.6-1,1.6-0.9c0,0.4-0.6,1.6-2.3,2.1
					C53.5-15.7,53.1-15.7,53.1-15.7z"/>
				<path class="st4" d="M58.3-12.1c0,0-1,0-1.5-0.5c-0.5-0.5-0.4-1.2-0.8-2c-0.3-0.7-0.6-0.8-0.6-0.8l2,0.8c0,0,0,0.3-0.5,0.2
					c-0.5-0.1-0.3,0-0.3,0s-0.2,1,0.5,1.5C57.7-12.4,58.6-12.5,58.3-12.1z"/>
				<path class="st5" d="M54.9-15.7c0,0,1.3-0.8,1.9-0.3c0.6,0.5,0.8,0.9,1.2,0.9c0.3,0,0.7,0.1,0.7,0.1s-0.7,0.7-1,0.7
					c-0.3,0-0.1,0.2,0,0.5c0.1,0.2,0.7,1.7,0.9,1.7s-0.8,0-1-0.3c-1-1.4-0.2-2.3-0.2-2.3s-0.9-0.8-1.4-0.8S55.4-15.5,54.9-15.7z"/>
				<path class="st5" d="M50.5-11.3c0,0,0.3,1.6,1.5,1.7c1.2,0.1,0.9-0.8,1.4-0.6c0.5,0.2,0.5,1.6-0.3,1.9c-0.8,0.2-2,0.1-2.3-0.8
					C50.4-10,50.5-11.3,50.5-11.3z"/>
				<path class="st4" d="M53.2-9.6c0.5-0.3,0.3,0.6,0,0.9c-0.5,0.5-1.9,0.5-2.3-0.5c-0.2-0.4-0.3-1-0.2-0.9
					C51.7-8.4,52.9-9.3,53.2-9.6z"/>
			</g>
			<g>
				<path class="st5" d="M48.4-15.9c1.8,0.5,1.7,2.8,1.7,2.8c-1.5-3.5-4.1-2.4-4.8-1.6c-1.4,1.6,0.3,4.4,2.2,2.6
					c0.3-0.3-0.1-1-0.5-0.9c-0.3,0.1,0,0.6,0,0.6c0.2,0.8-0.5,0.3-0.8,0c-0.7-0.8,1.2-2.4,1.9-0.5c0.3,0.9-0.1,1.9-1.5,2.1
					c-1.4,0.2-2.1-1.2-2.2-1.9C44.4-12.9,44.4-16.9,48.4-15.9z"/>
				<path class="st4" d="M46-12.3c0.1,0,0.2-0.1,0.1-0.1c-0.3-0.2-0.6-0.6-0.5-1.2c0.2-1,1.6-1.3,2.6-1c0.9,0.2,1.9,1.9,1.9,1.9
					l0.1-0.2c0,0-0.1-2-2.2-2.4s-2.8,1.2-2.9,1.4c-0.1,0.2-0.2,1.4,0.7,1.7C45.8-12.3,45.9-12.3,46-12.3z"/>
				<path class="st5" d="M44.4-18.1c0.7,0.2,0.7,0.3,1.6,0.6c0.6,0.1,1.6,1.3,1.6,1.3l0.2,0.3h-1.3c0,0-1.2-0.4-1.8-0.9
					C44.2-17.3,43.7-18.3,44.4-18.1z M46.4-16.2c0.6,0.1,0.9,0.1,0.9,0.1s-0.8-1-1.5-1.2c-0.7-0.1-1.7-0.7-1.7-0.7
					S45.1-16.3,46.4-16.2z"/>
				<path class="st4" d="M47.6-15.7c0,0-0.2-0.8-1.9-1.3c-0.8-0.2-1.6-1-1.6-0.9c0,0.4,0.6,1.6,2.3,2.1
					C47.1-15.7,47.6-15.7,47.6-15.7z"/>
				<path class="st4" d="M42.3-12.1c0,0,1,0,1.5-0.5s0.4-1.2,0.8-2c0.3-0.7,0.6-0.8,0.6-0.8l-2,0.8c0,0,0,0.3,0.5,0.2s0.3,0,0.3,0
					s0.2,1-0.5,1.5C42.9-12.4,42.1-12.5,42.3-12.1z"/>
				<path class="st5" d="M45.7-15.7c0,0-1.3-0.8-1.9-0.3c-0.6,0.5-0.8,0.9-1.2,0.9C42.3-15.2,42-15,42-15s0.7,0.7,1,0.7
					c0.3,0,0.1,0.2,0,0.5c-0.1,0.2-0.7,1.7-0.9,1.7c-0.2,0,0.8,0,1-0.3c1-1.4,0.2-2.3,0.2-2.3s0.9-0.8,1.4-0.8
					C45.3-15.6,45.3-15.5,45.7-15.7z"/>
				<path class="st5" d="M50.1-11.3c0,0-0.3,1.6-1.5,1.7s-0.9-0.8-1.4-0.6c-0.5,0.2-0.5,1.6,0.3,1.9c0.8,0.2,2,0.1,2.3-0.8
					C50.3-10,50.1-11.3,50.1-11.3z"/>
				<path class="st4" d="M47.5-9.6c-0.5-0.3-0.3,0.6,0,0.9c0.5,0.5,1.9,0.5,2.3-0.5c0.2-0.4,0.3-1,0.2-0.9C49-8.4,47.8-9.3,47.5-9.6
					z"/>
			</g>
			<path class="st4" d="M50.4-9.2"/>
			<path class="st5" d="M50.2-13.5h0.3c0,0,0.3,0.8,0.8,1.2c0.3,0.3,0.1,0.8-0.5,0.6c-0.6-0.2-0.6-0.2-1,0c-0.5,0.2-0.8-0.1-0.6-0.6
				C49.5-12.7,49.9-12.5,50.2-13.5z"/>
			<path class="st4" d="M50.1-12.6l-0.3,0.5c-0.1,0.1,0,0.3,0.1,0.3h0.4h0.4c0.1,0,0.2-0.2,0.1-0.3l-0.3-0.4
				C50.5-12.8,50.2-12.8,50.1-12.6z"/>
			<path class="st5" d="M50.4-5.6c-1,0-1-1.2-1-1.5c0-0.8,0.9-2.1,0.9-2.1s0.9,1,1,1.6C51.6-6.8,51.2-5.6,50.4-5.6z M50.6-7.2
				c0-0.5-0.1-0.8-0.3-0.8c-0.2,0-0.3,0.4-0.3,0.8c0,0.5,0.1,0.8,0.3,0.8C50.5-6.4,50.6-6.8,50.6-7.2z"/>
			<path class="st4" d="M51.1-7.1c0,0.6-0.3,1-0.8,1c-0.6,0-0.8-1-0.6-1.7s0.6-1.4,0.6-1.4S51.1-7.8,51.1-7.1z M50.6-7.2
				c0-0.5-0.1-0.8-0.3-0.8c-0.2,0-0.3,0.4-0.3,0.8c0,0.5,0.1,0.8,0.3,0.8C50.5-6.4,50.6-6.8,50.6-7.2z"/>
		</g>
	</g>
</pattern>
<rect class="st6" width="1366" height="768"/>
</svg>
